<svg width="46" height="46" viewBox="0 0 46 46" fill="none" xmlns="http://www.w3.org/2000/svg">
<path fill-rule="evenodd" clip-rule="evenodd" d="M7.76633 17.685C10.0094 9.31389 18.6138 4.34608 26.985 6.58912L29.2704 7.20151C37.6416 9.44454 42.6094 18.049 40.3663 26.4202C40.0632 27.5514 38.9004 28.2227 37.7692 27.9196L24.1283 24.2645L19.5003 40.2658L16.7985 39.4843L21.4111 23.5365L9.26577 20.2821C8.13454 19.979 7.46321 18.8162 7.76633 17.685ZM24.9098 21.5622L30.2493 22.9929L30.3502 20.6543C30.4694 17.8916 29.9263 15.1403 28.7662 12.6301L27.9832 10.9361L24.9098 21.5622ZM37.8111 25.0191L33.0322 23.7386L33.1601 20.7756C33.2987 17.5648 32.6675 14.3674 31.3192 11.4502L31.0556 10.8798C36.1678 13.4771 39.0335 19.2534 37.8111 25.0191ZM22.3697 8.8754C17.1189 9.0999 12.3727 12.5484 10.6797 17.7493L14.472 18.7654C16.2688 14.8792 18.9791 11.486 22.3697 8.8754ZM17.2339 19.5055L22.1926 20.8342L25.2505 10.2614L25.1564 10.3259C21.7576 12.653 19.031 15.8193 17.2339 19.5055Z" fill="#292725"/>
<path fill-rule="evenodd" clip-rule="evenodd" d="M17.2119 34.25C17.2119 37.3566 14.6935 39.875 11.5869 39.875C8.48031 39.875 5.96191 37.3566 5.96191 34.25C5.96191 31.1434 8.48031 28.625 11.5869 28.625C14.6935 28.625 17.2119 31.1434 17.2119 34.25ZM14.3994 34.25C14.3994 35.8033 13.1402 37.0625 11.5869 37.0625C10.0336 37.0625 8.77441 35.8033 8.77441 34.25C8.77441 32.6967 10.0336 31.4375 11.5869 31.4375C13.1402 31.4375 14.3994 32.6967 14.3994 34.25Z" fill="#292725"/>
<path fill-rule="evenodd" clip-rule="evenodd" d="M7.76633 17.685C10.0094 9.31389 18.6138 4.34608 26.985 6.58912L29.2704 7.20151C37.6416 9.44454 42.6094 18.049 40.3663 26.4202C40.0632 27.5514 38.9004 28.2227 37.7692 27.9196L24.1283 24.2645L19.5003 40.2658L16.7985 39.4843L21.4111 23.5365L9.26577 20.2821C8.13454 19.979 7.46321 18.8162 7.76633 17.685ZM24.9098 21.5622L30.2493 22.9929L30.3502 20.6543C30.4694 17.8916 29.9263 15.1403 28.7662 12.6301L27.9832 10.9361L24.9098 21.5622ZM37.8111 25.0191L33.0322 23.7386L33.1601 20.7756C33.2987 17.5648 32.6675 14.3674 31.3192 11.4502L31.0556 10.8798C36.1678 13.4771 39.0335 19.2534 37.8111 25.0191ZM22.3697 8.8754C17.1189 9.0999 12.3727 12.5484 10.6797 17.7493L14.472 18.7654C16.2688 14.8792 18.9791 11.486 22.3697 8.8754ZM17.2339 19.5055L22.1926 20.8342L25.2505 10.2614L25.1564 10.3259C21.7576 12.653 19.031 15.8193 17.2339 19.5055Z" stroke="#FCFBF9" stroke-width="1.5"/>
<path fill-rule="evenodd" clip-rule="evenodd" d="M17.2119 34.25C17.2119 37.3566 14.6935 39.875 11.5869 39.875C8.48031 39.875 5.96191 37.3566 5.96191 34.25C5.96191 31.1434 8.48031 28.625 11.5869 28.625C14.6935 28.625 17.2119 31.1434 17.2119 34.25ZM14.3994 34.25C14.3994 35.8033 13.1402 37.0625 11.5869 37.0625C10.0336 37.0625 8.77441 35.8033 8.77441 34.25C8.77441 32.6967 10.0336 31.4375 11.5869 31.4375C13.1402 31.4375 14.3994 32.6967 14.3994 34.25Z" stroke="#FCFBF9" stroke-width="1.5"/>
</svg>
