<svg width="45" height="46" viewBox="0 0 45 46" fill="none" xmlns="http://www.w3.org/2000/svg">
<g clip-path="url(#clip0_69_781)">
<path d="M26.496 19.2708C26.371 16.0008 23.569 13.1928 18.282 10.7568L17.5 10.4038L16.718 10.7568C11.308 13.2498 8.5 16.1318 8.5 19.4998V20.4998L10.5 20.4988H12.5H22.5H24.5L26.5 20.4998V19.4998L26.496 19.2708ZM10.635 18.4998L10.655 18.4288L10.717 18.2338C11.368 16.3458 13.492 14.4998 17.194 12.7418L17.5 12.5988L17.806 12.7418L18.183 12.9238C21.776 14.6878 23.796 16.5388 24.345 18.4288L24.364 18.4998H10.635Z" fill="#292725" stroke="#FCFBF9" stroke-width="0.7"/>
<path d="M23.5001 25.4968H11.4941V19.4988H23.5001V25.4968Z" stroke="#292725" stroke-width="1.3" stroke-linecap="round" stroke-linejoin="round"/>
<path d="M18.5 25.2498H16.5V22.4998H18.5V25.2498Z" fill="#292725"/>
<path d="M31.954 13.6888C32.33 15.0828 32.5 16.6228 32.5 18.4998C32.5 20.8458 31.902 23.1818 30.717 25.4998L28.437 25.4988C29.817 23.1458 30.5 20.8158 30.5 18.4998C30.5 16.5748 30.31 15.0868 29.893 13.7588C30.812 11.9998 31.5 11.9998 31.954 13.6888Z" fill="#292725" stroke="#FCFBF9" stroke-width="0.7"/>
<path d="M31.6 11.5402C33.734 11.8242 30.31 15.0872 29.893 13.7592C29.114 14.1442 28.565 14.9232 28.505 15.8362L28.5 16.0002H26.5C26.5 14.0502 27.74 12.3912 29.474 11.7652C29.325 11.0792 31.857 10.9572 31.6 11.5402Z" fill="#292725" stroke="#FCFBF9" stroke-width="0.7"/>
<path d="M31.6001 11.5402C33.7341 11.8242 35.3941 13.6032 35.4951 15.7882L35.5001 16.0002H33.5001C33.5001 14.9572 32.8621 14.0642 31.9541 13.6892C31.3081 13.2162 30.7951 12.9532 29.4741 11.7652C29.3251 11.0792 31.8571 10.9572 31.6001 11.5402Z" fill="#292725" stroke="#FCFBF9" stroke-width="0.7"/>
<path d="M31.6 11.54C31.408 11.63 30.311 12.061 29.474 11.765C29.325 11.079 28.526 10.5 27.5 10.5C26.416 10.5 25.587 11.146 25.506 11.883L25.5 12H23.5C23.5 10.023 25.327 8.5 27.5 8.5C28.682 8.5 29.762 8.951 30.501 9.68C31.239 8.95 31.857 10.957 31.6 11.54Z" fill="#292725" stroke="#FCFBF9" stroke-width="0.7"/>
<path d="M33.5003 8.5C35.6033 8.5 37.3823 9.926 37.4943 11.81L37.5003 12H35.5003C35.5003 11.216 34.6413 10.5 33.5003 10.5C32.5893 10.5 31.8573 10.957 31.6003 11.54C31.5123 11.676 30.7313 11.685 29.4743 11.765C29.3253 11.079 29.7623 8.951 30.5013 9.68C31.2393 8.95 32.3183 8.5 33.5003 8.5Z" fill="#292725" stroke="#FCFBF9" stroke-width="0.7"/>
<path d="M8.13574 35.3521C7.41174 35.3521 6.68774 35.1021 6.13574 34.6021C5.58374 34.1021 4.85974 33.8521 4.13574 33.8521C3.41174 33.8521 2.68774 34.1021 2.13574 34.6021C1.58374 35.1021 0.859741 35.3521 0.13574 35.3521C-0.588259 35.3521 -1.31226 35.1021 -1.86426 34.6021C-2.41626 34.1021 -3.14026 33.8521 -3.86426 33.8521C-4.58826 33.8521 -5.31226 34.1021 -5.86426 34.6021C-6.41626 35.1021 -7.14026 35.3521 -7.86426 35.3521C-8.58826 35.3521 -9.31226 35.1021 -9.86426 34.6021C-10.4163 34.1021 -11.1403 33.8521 -11.8643 33.8521C-12.5883 33.8521 -13.3123 34.1021 -13.8643 34.6021C-14.4163 35.1021 -15.1403 35.3521 -15.8643 35.3521M56.1237 35.3661C55.3997 35.3661 54.6757 35.1161 54.1237 34.6161C53.5717 34.1161 52.8477 33.8661 52.1237 33.8661C51.3997 33.8661 50.6757 34.1161 50.1237 34.6161C49.5717 35.1161 48.8477 35.3661 48.1237 35.3661C47.3997 35.3661 46.6757 35.1161 46.1237 34.6161C45.5717 34.1161 44.8477 33.8661 44.1237 33.8661C43.3997 33.8661 42.6757 34.1161 42.1237 34.6161C41.5717 35.1161 40.8477 35.3661 40.1237 35.3661C39.3997 35.3661 38.6757 35.1161 38.1237 34.6161C37.5717 34.1161 36.8477 33.8661 36.1237 33.8661C35.3997 33.8661 34.6757 34.1161 34.1237 34.6161C33.5717 35.1161 32.8477 35.3661 32.1237 35.3661M32.1247 35.3751C31.4007 35.3751 30.6767 35.1251 30.1247 34.6251C29.5727 34.1251 28.8487 33.8751 28.1247 33.8751C27.4007 33.8751 26.6767 34.1251 26.1247 34.6251C25.5727 35.1251 24.8487 35.3751 24.1247 35.3751C23.4007 35.3751 22.6767 35.1251 22.1247 34.6251C21.5727 34.1251 20.8487 33.8751 20.1247 33.8751C19.4007 33.8751 18.6767 34.1251 18.1247 34.6251C17.5727 35.1251 16.8487 35.3751 16.1247 35.3751C15.4007 35.3751 14.6767 35.1251 14.1247 34.6251C13.5727 34.1251 12.8487 33.8751 12.1247 33.8751C11.4007 33.8751 10.6767 34.1251 10.1247 34.6251C9.57274 35.1251 8.84874 35.3751 8.12474 35.3751" stroke="#292725" stroke-width="1.3"/>
<path d="M8.13574 30.3521C7.41174 30.3521 6.68774 30.1021 6.13574 29.6021C5.58374 29.1021 4.85974 28.8521 4.13574 28.8521C3.41174 28.8521 2.68774 29.1021 2.13574 29.6021C1.58374 30.1021 0.859741 30.3521 0.13574 30.3521C-0.588259 30.3521 -1.31226 30.1021 -1.86426 29.6021C-2.41626 29.1021 -3.14026 28.8521 -3.86426 28.8521C-4.58826 28.8521 -5.31226 29.1021 -5.86426 29.6021C-6.41626 30.1021 -7.14026 30.3521 -7.86426 30.3521C-8.58826 30.3521 -9.31226 30.1021 -9.86426 29.6021C-10.4163 29.1021 -11.1403 28.8521 -11.8643 28.8521C-12.5883 28.8521 -13.3123 29.1021 -13.8643 29.6021C-14.4163 30.1021 -15.1403 30.3521 -15.8643 30.3521M56.1237 30.3661C55.3997 30.3661 54.6757 30.1161 54.1237 29.6161C53.5717 29.1161 52.8477 28.8661 52.1237 28.8661C51.3997 28.8661 50.6757 29.1161 50.1237 29.6161C49.5717 30.1161 48.8477 30.3661 48.1237 30.3661C47.3997 30.3661 46.6757 30.1161 46.1237 29.6161C45.5717 29.1161 44.8477 28.8661 44.1237 28.8661C43.3997 28.8661 42.6757 29.1161 42.1237 29.6161C41.5717 30.1161 40.8477 30.3661 40.1237 30.3661C39.3997 30.3661 38.6757 30.1161 38.1237 29.6161C37.5717 29.1161 36.8477 28.8661 36.1237 28.8661C35.3997 28.8661 34.6757 29.1161 34.1237 29.6161C33.5717 30.1161 32.8477 30.3661 32.1237 30.3661M32.1247 30.3751C31.4007 30.3751 30.6767 30.1251 30.1247 29.6251C29.5727 29.1251 28.8487 28.8751 28.1247 28.8751C27.4007 28.8751 26.6767 29.1251 26.1247 29.6251C25.5727 30.1251 24.8487 30.3751 24.1247 30.3751C23.4007 30.3751 22.6767 30.1251 22.1247 29.6251C21.5727 29.1251 20.8487 28.8751 20.1247 28.8751C19.4007 28.8751 18.6767 29.1251 18.1247 29.6251C17.5727 30.1251 16.8487 30.3751 16.1247 30.3751C15.4007 30.3751 14.6767 30.1251 14.1247 29.6251C13.5727 29.1251 12.8487 28.8751 12.1247 28.8751C11.4007 28.8751 10.6767 29.1251 10.1247 29.6251C9.57274 30.1251 8.84874 30.3751 8.12474 30.3751" stroke="#292725" stroke-width="1.3"/>
</g>
<defs>
<clipPath id="clip0_69_781">
<rect width="45" height="45" fill="white" transform="translate(0 0.5)"/>
</clipPath>
</defs>
</svg>
