<svg width="46" height="46" viewBox="0 0 46 46" fill="none" xmlns="http://www.w3.org/2000/svg">
<path d="M27.3369 37.5H17.3369V35.5H27.3369V37.5ZM25.3369 33.5H19.3369V31.5H25.3369V33.5ZM35.3369 8.5V11.5H37.3369V13.5H35.3369V28.5C35.3369 29.013 34.9509 29.436 34.4539 29.493L34.3369 29.5H10.3369C9.82391 29.5 9.40091 29.114 9.34391 28.617L9.33691 28.5V13.5H7.33691V11.5H33.3369V8.5H35.3369ZM33.3369 13.5H11.3369V27.5H18.3369V19.5C18.3369 18.987 18.7229 18.564 19.2199 18.507L19.3369 18.5H25.3369C25.8499 18.5 26.2729 18.886 26.3299 19.383L26.3369 19.5V27.5H33.3369V13.5ZM24.3369 20.5H20.3369V27.5H24.3369V20.5ZM30.3369 15.5C30.8889 15.5 31.3369 15.948 31.3369 16.5C31.3369 17.052 30.8889 17.5 30.3369 17.5C29.7849 17.5 29.3369 17.052 29.3369 16.5C29.3369 15.948 29.7849 15.5 30.3369 15.5Z" fill="#292725" stroke="#FCFBF9" stroke-width="0.7"/>
</svg>
