<svg width="45" height="46" viewBox="0 0 45 46" fill="none" xmlns="http://www.w3.org/2000/svg">
<path d="M22.917 19.426H31M23 8.5V11.301V27.426M23 9.426C27.418 9.426 31 13.008 31 17.426V27.426H23C23 27.426 23 12.551 23 9.426Z" stroke="#292725" stroke-width="1.3"/>
<path d="M23.083 19.426H15M23 8.5V11.301V27.426M23 9.426C18.582 9.426 15 13.008 15 17.426V27.426H23C23 27.426 23 12.551 23 9.426Z" stroke="#292725" stroke-width="1.3"/>
<path d="M33 27.426V37.426" stroke="#292725" stroke-width="1.3"/>
<path d="M29 27.426V37.426" stroke="#292725" stroke-width="1.3"/>
<path d="M25 27.426V37.426" stroke="#292725" stroke-width="1.3"/>
<path d="M21 27.426V37.426" stroke="#292725" stroke-width="1.3"/>
<path d="M17 27.426V37.426" stroke="#292725" stroke-width="1.3"/>
<path d="M13 27.426V37.426" stroke="#292725" stroke-width="1.3"/>
<path d="M10 37.426H36" stroke="#292725" stroke-width="1.3"/>
<path d="M10 27.426H36" stroke="#292725" stroke-width="1.3"/>
</svg>
