<svg width="175" height="150" viewBox="0 0 175 150" fill="none" xmlns="http://www.w3.org/2000/svg">
<mask id="path-1-outside-1_110_1361" maskUnits="userSpaceOnUse" x="0" y="0" width="175" height="150" fill="black">
<rect fill="white" width="175" height="150"/>
<path d="M89.5572 28.6508C90.0457 28.6635 90.4564 28.7777 90.9028 29.0106C91.2607 29.1973 91.5978 29.4919 91.7246 29.9346C92.0618 31.1095 91.2387 32.6109 90.7973 33.6519C90.3622 33.5946 89.8216 33.326 89.4304 33.0942C89.0681 32.8793 88.7159 32.5552 88.6004 32.0895C88.3003 30.8813 89.0656 29.6631 89.5572 28.6508Z"/>
<path d="M76.7477 34.7943C77.4553 34.6897 78.2935 34.7527 78.8768 35.2745C81.4881 37.6102 75.578 44.8837 76.0426 47.6805C76.0997 48.0256 76.1977 48.0465 76.4388 48.2368C76.7446 48.2706 77.0616 48.301 77.3618 48.2087C79.6409 47.5068 81.0957 41.5913 81.5333 39.2018C81.7644 37.9412 81.7813 36.194 82.3194 35.0737C82.4651 34.9647 82.6603 34.7687 82.8299 34.7566C83.5971 34.7018 84.0856 35.1677 84.6312 35.7129C84.8572 36.4326 84.851 37.1187 84.7794 37.8682C84.4372 41.4622 82.5247 45.5701 80.0409 47.8276C78.8975 48.8663 77.1904 49.8268 75.6897 49.5976C75.1579 49.5165 74.736 49.2501 74.4152 48.7538C72.5517 45.8683 76.3051 38.2595 76.7477 34.7943Z"/>
<path d="M96.9318 25.6412C97.6093 25.6291 98.342 25.5886 98.9334 26.0318C102.215 28.4899 92.0959 43.7695 92.9103 47.8424L93.1589 47.9824C94.8768 47.1082 97.4843 41.6435 98.2867 39.5915C98.887 38.0562 99.3214 36.429 99.8916 34.8766C100.298 33.7702 100.831 32.7559 101.207 31.6251C101.614 30.396 102.446 26.4057 103.185 25.7427C103.706 25.6142 104.277 25.6803 104.757 25.9577C108.417 28.0718 97.8353 44.407 98.8455 47.9531L99.0734 48.0036C101.322 46.5402 102.779 42.7371 103.964 40.1659C104.943 38.041 106.382 35.5138 108.528 34.7931C109.605 34.4317 110.552 34.7192 111.509 35.303C111.662 35.5208 111.802 35.7399 111.861 36.0158C111.972 36.5298 111.964 37.2414 111.713 37.701C111.561 37.9783 111.486 37.9768 111.214 38.055L110.802 37.7667C110.531 37.2826 110.656 36.6352 110.7 36.0883L110.489 35.8548C110.171 35.899 110 35.9134 109.731 36.1402C108.07 37.5432 106.079 42.5686 105.794 44.8895C105.655 46.0178 105.79 47.0658 106.387 47.9973C106.648 48.1395 106.759 48.255 107.05 48.1712C108.644 47.7125 111.716 39.7043 112.308 37.9444C112.558 37.2027 112.745 35.7013 113.112 35.1148C113.272 34.8599 113.493 34.7484 113.767 34.7242C114.225 34.684 114.998 34.9886 115.325 35.352C115.836 35.9199 115.795 36.8025 115.782 37.5507C115.288 40.1396 111.808 46.1433 112.169 47.9655C114.252 48.4635 116.722 40.3228 118.012 39.8339L118.155 40.0859C118.022 41.9149 116.667 43.969 115.753 45.4655C114.882 46.8939 113.445 49.1128 111.817 49.4034C111.433 49.472 111.042 49.3785 110.729 49.1106C109.973 48.4646 109.92 47.3864 109.819 46.4051C108.819 47.768 107.769 49.2183 106.097 49.3912C105.318 49.4718 104.545 49.221 103.958 48.6213C102.904 47.545 102.802 46.1446 102.731 44.6469C102.146 45.7321 101.477 46.7766 100.694 47.6878C100.036 48.454 99.0332 49.4437 98.0444 49.4259C97.6827 49.4194 97.3569 49.2774 97.1045 48.9774C96.2593 47.9736 96.4307 46.3432 96.4659 45.0772C95.9567 45.9928 95.4167 46.9243 94.7518 47.7018C94.0769 48.4908 93.066 49.4449 92.0526 49.4321C91.6841 49.4274 91.3431 49.2668 91.0945 48.952C90.3279 47.9807 90.439 46.5584 90.4698 45.3519C89.6642 46.6324 88.5993 48.1588 87.402 48.9847C86.8602 49.3586 86.297 49.5537 85.671 49.3503C85.2396 49.2099 84.9156 48.9042 84.7135 48.4465C83.5682 45.8557 85.9158 40.9287 86.7541 38.4726C87.0554 37.5893 87.208 36.6545 87.478 35.7624C87.6073 35.3357 87.7568 34.9881 88.1266 34.7859C88.718 34.7855 89.3478 34.8216 89.8231 35.279C92.2849 37.6491 86.4684 44.9457 86.6812 47.8137L86.8978 47.9859C87.0799 47.9133 87.2563 47.825 87.4164 47.7003C90.7824 45.0783 96.0201 30.4549 96.9318 25.6412Z"/>
<path fill-rule="evenodd" clip-rule="evenodd" d="M137.836 26.9554C136.445 25.845 134.627 25.486 132.96 25.688C132.832 25.7285 132.703 25.7676 132.573 25.8068C131.689 26.0733 130.788 26.3453 130.141 27.12C129.994 27.4878 130.106 27.9328 130.219 28.3763C130.294 28.6758 130.37 28.9746 130.365 29.2484C130.346 30.3356 129.972 31.6024 129.66 32.6616C129.633 32.7514 129.607 32.8398 129.582 32.9263C127.314 40.6689 124.446 48.2306 121.589 55.7627C120.456 58.7494 119.325 61.7315 118.234 64.7183C117.939 65.5249 117.554 66.6703 117.123 67.9557C115.974 71.3802 114.491 75.7979 113.484 77.4461C112.613 78.8712 110.873 79.8991 109.484 80.4875C107.758 81.2188 105.934 81.4524 104.109 81.5971C104.787 79.2801 105.733 75.6303 104.68 73.2865C104.286 72.4069 103.618 71.7855 102.791 71.4967C101.659 71.1014 100.348 71.2761 99.3141 71.9278C98.1212 72.6805 97.3169 74.0899 96.9659 75.5678C96.5239 77.4332 96.7374 79.736 97.5869 81.4176C98.0979 82.4294 98.8683 83.1492 99.7178 83.771C99.4323 84.3647 99.1274 85.0173 98.8038 85.7101C96.3556 90.951 92.8294 98.4993 88.4074 100.365C87.1153 99.8539 86.0881 99.3324 85.4577 97.8344C83.5666 93.3411 85.6517 85.3271 87.0914 80.835C89.1157 74.5178 91.9856 68.5001 95.9079 63.4555C96.7694 62.3483 97.8587 60.9617 99.041 60.3119C99.4365 60.0946 99.9828 59.8905 100.422 60.0369C100.85 60.1799 101.242 60.6265 101.464 61.0541C101.502 61.4427 101.264 61.9718 100.997 62.5633C100.467 63.7404 99.8253 65.1645 101.033 66.2196C101.679 66.785 102.98 66.9566 103.784 66.7989C104.447 66.6687 104.94 66.005 105.295 65.4024C105.438 65.1603 105.563 64.9043 105.684 64.6474C105.789 62.2828 105.342 59.8371 103.907 58.0325C102.715 56.5342 101.132 55.921 99.3926 55.842C94.2949 55.6103 89.4886 58.3371 85.825 62.2271C79.6531 68.7801 75.1933 79.6287 74.902 89.2826C74.899 89.3744 74.8972 89.4665 74.8963 89.5588C74.0918 89.6999 73.2548 89.8399 72.3991 89.9829C68.9134 90.5657 65.1181 91.2003 61.9497 92.1767C66.1338 74.849 67.9094 57.2647 67.8799 39.3061C67.8793 38.9481 67.8904 38.4788 67.9031 37.9454C67.9543 35.7921 68.0304 32.5935 67.4567 31.4502C67.2169 30.9727 66.7102 30.729 66.2638 30.6052C60.8986 29.1176 39.4739 44.3363 33.8531 48.3813C25.9921 54.0384 17.2971 62.5029 15.1184 73.3494C14.4754 76.5502 14.5731 80.1621 16.1409 83.0115C16.2926 83.2854 16.4556 83.5501 16.6299 83.8058C16.8043 84.0614 16.9892 84.3067 17.1845 84.5416C17.3799 84.7766 17.5849 85.0001 17.7995 85.2121C18.014 85.4241 18.2371 85.6236 18.4687 85.8107C18.7004 85.9977 18.9395 86.1713 19.186 86.3316C19.4325 86.4919 19.6853 86.638 19.9444 86.7701C20.2035 86.9021 20.4675 87.0193 20.7366 87.1217C21.0057 87.2241 21.2786 87.3113 21.5552 87.3832C24.865 88.2381 29.034 87.1476 31.8633 85.0818C34.1131 83.4391 37.0257 80.7103 37.6166 77.5582C37.7932 76.6157 37.6694 75.6651 37.2091 74.8516C36.4891 73.5795 35.1273 72.8167 33.8568 72.5353C33.1153 72.371 32.1795 72.3088 31.5315 72.8249C31.0203 73.232 30.7776 74.5832 30.5587 75.8022C30.4332 76.5012 30.3155 77.1567 30.1594 77.5658C29.001 80.6016 26.03 83.8522 22.9028 83.3234C21.5219 83.0899 20.2629 82.1482 19.4471 80.8668C18.2816 79.0361 18.1098 76.7462 18.4206 74.5693C19.6175 66.1867 26.2139 59.0952 32.008 54.3708C38.3917 49.1654 45.3932 45.4277 52.4622 41.654C52.6829 41.5362 52.9035 41.4184 53.1243 41.3005C53.0611 45.3094 52.8873 49.3121 52.6031 53.3085C52.319 57.3049 51.9248 61.2871 51.4208 65.2551C50.9168 69.2231 50.3038 73.169 49.582 77.0928C48.8601 81.0166 48.0307 84.9106 47.0939 88.7746C46.9646 89.295 46.8376 89.8212 46.71 90.3503C46.1623 92.6209 45.602 94.9433 44.7886 97.0717C32.0329 101.416 16.9397 107.251 7.49441 118.354C3.68834 123.17 0.736348 129.089 1.01869 135.802C1.16834 139.361 2.41427 142.757 4.74881 145.161C7.48782 147.982 11.3479 149.208 14.9819 148.971C26.0087 148.255 37.7879 139.701 44.9532 130.469C50.6695 123.104 54.9392 114.206 58.1302 105.104C58.7184 103.427 59.2453 101.725 59.7723 100.023C60.1437 98.8239 60.5151 97.6244 60.9081 96.4332L74.87 93.41C75.2253 96.9785 76.4315 100.638 78.9499 102.947C80.8705 104.707 83.5653 105.607 86.0115 105.296C90.4197 104.735 94.0959 100.627 96.7323 96.8221C99.3191 93.0878 101.229 88.8464 103.005 84.5591C106.022 84.6726 109.385 83.9211 112.13 82.4572C110.347 88.0985 108.021 95.6641 110.422 101.459C111.072 103.028 112.114 104.33 113.574 104.912C115.287 105.594 117.124 105.146 118.704 104.243C122.794 101.907 125.982 96.9816 128.649 92.8631L128.696 92.7901C128.823 92.5931 128.964 92.3833 129.112 92.1642C129.745 91.2215 130.494 90.1084 130.768 89.1176C130.804 88.9883 130.819 88.8564 130.835 88.723L130.836 88.7144C130.839 88.685 130.843 88.6559 130.847 88.6269C130.849 88.6135 130.851 88.6001 130.853 88.5866C130.864 88.492 130.873 88.398 130.88 88.3023C130.899 88.3353 130.918 88.3678 130.937 88.4016C131.313 89.087 131.294 90.7204 131.277 92.1011C131.269 92.7278 131.262 93.3024 131.293 93.7127C131.682 98.8452 134.365 103.616 138.874 104.992C141.556 105.81 144.219 105.209 146.596 103.633C151.597 100.316 155.128 94.1546 157.707 88.403C157.842 88.1021 157.996 87.7919 158.154 87.4753C158.542 86.6953 158.948 85.8773 159.129 85.0692C159.163 84.9156 159.144 84.7574 159.113 84.6055C163.707 84.5953 168.809 83.3019 172.149 79.4533C173.052 78.4132 174.022 77.1387 174 75.5919C173.991 75.0084 173.843 74.2987 173.448 73.8935C173.249 73.6885 172.991 73.5867 172.721 73.591C172.23 73.599 171.683 74.0751 171.38 74.4794C171.022 74.9537 170.77 75.5254 170.517 76.0963C170.33 76.5213 170.142 76.946 169.912 77.3297C168.287 80.0352 164.762 81.1227 162.075 81.4227C161.474 81.4898 160.872 81.5463 160.27 81.5923C161.179 80.5751 161.43 77.463 161.441 76.0574C161.452 74.6683 161.263 73.1608 160.382 72.1227C160.237 71.9529 160.069 71.8221 159.892 71.7018C158.515 71.2379 156.959 71.067 155.658 71.899C154.457 72.668 153.709 74.1338 153.366 75.6189C152.903 77.6247 153.091 79.7577 154.025 81.5527C154.511 82.4869 155.208 83.1174 155.984 83.7188C155.926 84.357 155.496 85.1683 155.135 85.8484C155.02 86.0659 154.911 86.27 154.825 86.4507L154.69 86.7312C152.717 90.8498 150.301 95.8951 147.106 98.8811C146.308 99.6265 145.302 100.295 144.234 100.165C143.508 100.076 142.923 99.6136 142.476 98.9708C140.831 96.6025 140.989 93.1151 141.305 90.2992C142.326 81.1802 148.116 66.5441 154.652 60.8137C155.191 60.3411 155.921 59.8008 156.63 59.9202C156.981 59.9792 157.682 60.4937 157.873 60.8493C157.892 60.8831 157.906 60.9328 157.918 60.9737C157.921 60.984 157.924 60.9937 157.926 61.0025C157.767 61.4781 157.548 61.8835 157.34 62.2702C156.843 63.192 156.404 64.0075 156.959 65.4144C157.202 66.0329 157.652 66.4427 158.207 66.6586C158.944 66.9447 159.822 66.8906 160.52 66.4943C161.232 66.0897 161.76 65.336 162.007 64.4786C162.434 62.9958 162.004 61.3425 161.393 60.0091C160.575 58.2223 159.382 56.8086 157.669 56.197C154.361 55.0156 149.887 56.497 146.942 58.2866C143.454 60.4052 140.586 63.663 138.278 67.2886C136.689 69.7845 135.55 72.4836 134.405 75.1964C133.729 76.8005 133.05 78.4093 132.275 79.9836C130.787 83.007 121.235 100.773 117.988 100.082L117.949 100.053C117.607 99.7993 117.379 99.6299 117.287 99.1293C116.532 95.0254 125.381 74.4598 129.728 64.3569C130.567 62.4076 131.238 60.8478 131.641 59.8709C133.496 55.3999 135.227 50.867 136.834 46.2724C136.938 45.9728 137.045 45.6667 137.153 45.3548C138.541 41.3732 140.257 36.4518 140.16 32.2766C140.111 30.1721 139.38 28.1875 137.836 26.9554ZM43.275 101.73L43.1224 101.685C31.519 105.918 12.217 113.362 6.2543 126.517C4.76582 129.8 3.7925 133.993 4.81988 137.627C5.13971 138.76 5.65701 139.877 6.32174 140.796C7.45849 141.902 8.63706 142.222 10.0998 142.085C17.5172 141.392 25.8278 134.384 30.4925 128.054C35.4791 121.288 39.0584 113.675 42.0842 105.571C42.1574 105.375 42.2664 105.114 42.3899 104.818C42.7826 103.877 43.321 102.588 43.3127 101.937C43.3121 101.887 43.2954 101.817 43.2828 101.764C43.2799 101.751 43.2772 101.74 43.275 101.73Z"/>
<path d="M102.713 3.86736C102.883 4.08667 102.956 4.39128 102.932 4.78118C102.932 5.1467 102.822 5.48786 102.604 5.80465C101.996 6.75503 100.708 7.23021 98.7401 7.23021C97.7438 7.23021 96.6017 7.10837 95.3138 6.86468C95.168 6.84031 94.8521 6.76721 94.3661 6.64537C93.1754 6.37731 92.1791 6.17018 91.3772 6.02397C91.3529 6.09708 91.3165 6.20673 91.2679 6.35294C91.2193 6.47479 91.1828 6.57226 91.1585 6.64537C88.7771 12.5913 87.2098 16.8801 86.4565 19.5119C86.4322 19.7556 86.4929 19.9018 86.6387 19.9506C86.6873 19.9749 86.7602 19.9749 86.8574 19.9506C86.9789 19.9018 87.2584 19.6581 87.6958 19.2195C88.1332 18.7565 88.6435 18.1107 89.2267 17.2822C89.7613 16.5024 90.308 15.6495 90.8669 14.7235C91.3772 13.8463 91.8146 13.0421 92.1791 12.311C92.2763 12.1161 92.4221 12.0674 92.6165 12.1648C92.8352 12.2623 92.896 12.4207 92.7988 12.64C92.3614 13.4929 91.8025 14.4798 91.1221 15.6008C90.6118 16.4781 90.1258 17.2944 89.6641 18.0498C88.6192 19.6825 87.7808 20.84 87.149 21.5223C86.5415 22.2047 86.0555 22.5945 85.691 22.692C85.691 22.692 85.6789 22.7042 85.6546 22.7286C85.5574 22.8017 85.448 22.8504 85.3265 22.8748C85.3265 22.8748 85.3144 22.8748 85.2901 22.8748C85.0228 22.9723 84.7555 23.021 84.4882 23.021C84.0508 23.021 83.6742 22.887 83.3583 22.6189C82.6536 22.0584 82.447 21.035 82.7386 19.5485C82.8601 19.0124 83.4312 17.4162 84.4518 14.7601C84.9378 13.4685 85.3144 12.4451 85.5817 11.6896C85.8733 10.9099 86.2256 9.91075 86.6387 8.69232C87.0761 7.4739 87.4042 6.42605 87.6229 5.54879C85.2901 5.37821 83.7957 5.65844 83.1396 6.3895C83.091 6.4626 83.0181 6.51134 82.9209 6.53571C82.7265 6.53571 82.5685 6.45042 82.447 6.27984C82.3255 6.10926 82.3012 5.84121 82.3741 5.47568C82.4227 5.11015 82.5564 4.76899 82.7751 4.4522C83.6013 3.23378 85.1686 2.8317 87.4771 3.24596C87.6715 3.27033 87.8902 3.30688 88.1332 3.35562C88.2304 2.62457 88.2425 2.06409 88.1696 1.67419C88.1453 1.47925 88.2304 1.32085 88.4248 1.19901C88.6192 1.02843 89.0566 0.967508 89.737 1.01625C90.4417 1.04061 91.0006 1.22338 91.4137 1.56454C92.167 2.12501 92.3857 2.99009 92.0697 4.15978C97.7559 5.18326 101.024 5.03705 101.875 3.72115C101.923 3.64804 101.996 3.59931 102.093 3.57494C102.336 3.5262 102.543 3.62367 102.713 3.86736Z"/>
<path d="M103.759 12.0552C103.856 11.8602 104.002 11.8115 104.196 11.909C104.415 12.0064 104.476 12.1648 104.378 12.3841C103.285 14.6992 101.997 16.9045 100.515 19.0002C99.567 20.3405 98.6922 21.3518 97.8903 22.0341C97.1127 22.7164 96.408 23.0575 95.7762 23.0575C95.6547 23.0575 95.5332 23.0454 95.4117 23.021C95.0229 22.9235 94.7556 22.7042 94.6098 22.363C94.4883 22.1437 94.4155 21.8879 94.3911 21.5954C94.3911 21.2786 94.4397 20.9131 94.5369 20.4989C94.6341 20.0846 94.7313 19.7069 94.8285 19.3657C94.9501 19.0246 95.1201 18.5737 95.3388 18.0133C95.5818 17.4528 95.7762 17.002 95.922 16.6608C96.0678 16.3197 96.2865 15.8323 96.5781 15.1987C97.5501 13.0786 98.024 11.8602 97.9997 11.5434C97.4651 11.6165 96.7361 12.2014 95.8127 13.298C94.9136 14.3945 94.0388 15.7836 93.1883 17.465C92.3621 19.1464 91.8275 20.7182 91.5845 22.1803C91.5602 22.229 91.5359 22.2778 91.5116 22.3265C91.4873 22.4971 91.4144 22.6311 91.2929 22.7286C91.1957 22.8017 91.0864 22.8504 90.9649 22.8748C90.9649 22.8748 90.9527 22.8748 90.9284 22.8748C90.6611 22.9723 90.3938 23.021 90.1265 23.021C89.6891 23.021 89.3125 22.887 88.9966 22.6189C88.2919 22.0584 88.0853 21.035 88.3769 19.5485C88.4984 19.0367 89.0695 17.4406 90.0901 14.7601C90.6733 13.2005 91.1228 11.9699 91.4387 11.0682C91.7789 10.1422 92.192 8.96037 92.678 7.52263C93.164 6.08489 93.4921 4.87865 93.6622 3.90391C93.8566 2.92917 93.9052 2.18593 93.808 1.67419C93.7594 1.47925 93.8444 1.32085 94.0631 1.19901C94.2575 1.02843 94.6949 0.967508 95.3753 1.01625C96.08 1.04061 96.6389 1.22338 97.052 1.56454C97.8539 2.17375 98.0604 3.11193 97.6716 4.3791C97.623 4.54968 97.3314 5.3051 96.7968 6.64537C95.436 10.0082 94.4033 12.6888 93.6986 14.687C95.0108 12.5669 96.3594 11.117 97.7445 10.3372C97.9632 10.191 98.2427 10.0691 98.5829 9.97167C98.9474 9.84982 99.3362 9.76453 99.7493 9.7158C100.162 9.66706 100.515 9.74017 100.806 9.93511C101.171 10.1788 101.341 10.5687 101.317 11.1048C101.219 12.0795 100.503 13.8706 99.1661 16.4781C98.5586 17.6477 98.1576 18.4641 97.9632 18.9271C97.6959 19.5607 97.6109 19.9384 97.7081 20.0602C98.0969 19.9627 98.9595 19.0489 100.296 17.3188C101.657 15.5642 102.811 13.8097 103.759 12.0552Z"/>
<path d="M113.855 12.64C113.952 12.4207 114.098 12.3598 114.292 12.4573C114.511 12.5547 114.572 12.7131 114.474 12.9324C113.891 14.2483 113.272 15.4668 112.615 16.5877C111.959 17.7087 111.194 18.8052 110.319 19.8775C109.444 20.9253 108.472 21.7538 107.403 22.363C106.334 22.9723 105.228 23.2769 104.086 23.2769C103.868 23.2769 103.637 23.2647 103.394 23.2403C102.64 23.1428 102.033 22.7651 101.571 22.1072C101.085 21.4249 100.794 20.5232 100.696 19.4023C100.526 17.4284 100.927 15.5155 101.899 13.6635C103.017 11.5434 104.597 10.191 106.638 9.60614C108.339 9.11877 109.566 9.38682 110.319 10.4103C110.781 11.0195 110.975 11.8115 110.902 12.7862C110.854 13.7366 110.538 14.6748 109.955 15.6008C109.59 16.21 109.189 16.6974 108.752 17.0629C108.339 17.4284 107.95 17.6599 107.585 17.7574C107.221 17.8305 106.917 17.8671 106.674 17.8671C106.431 17.8427 106.212 17.794 106.018 17.7208C105.313 17.4528 104.815 16.9532 104.524 16.2222C103.989 17.5868 103.77 18.8296 103.868 19.9506C103.965 20.9497 104.317 21.5589 104.925 21.7782C105.168 21.8757 105.617 21.7782 106.273 21.4858C106.954 21.1934 107.695 20.706 108.497 20.0237C110.659 18.196 112.445 15.7348 113.855 12.64ZM107.731 12.0552C106.686 12.7131 105.787 13.7244 105.034 15.089C105.083 15.4789 105.253 15.7592 105.544 15.9298C105.909 16.1734 106.273 16.2222 106.638 16.076C107.27 15.7836 107.768 15.3571 108.132 14.7966C108.497 14.2118 108.703 13.6148 108.752 13.0055C108.776 12.4451 108.667 12.0917 108.424 11.9455C108.254 11.848 108.023 11.8846 107.731 12.0552Z"/>
</mask>
<path d="M89.5572 28.6508C90.0457 28.6635 90.4564 28.7777 90.9028 29.0106C91.2607 29.1973 91.5978 29.4919 91.7246 29.9346C92.0618 31.1095 91.2387 32.6109 90.7973 33.6519C90.3622 33.5946 89.8216 33.326 89.4304 33.0942C89.0681 32.8793 88.7159 32.5552 88.6004 32.0895C88.3003 30.8813 89.0656 29.6631 89.5572 28.6508Z" fill="#292725"/>
<path d="M76.7477 34.7943C77.4553 34.6897 78.2935 34.7527 78.8768 35.2745C81.4881 37.6102 75.578 44.8837 76.0426 47.6805C76.0997 48.0256 76.1977 48.0465 76.4388 48.2368C76.7446 48.2706 77.0616 48.301 77.3618 48.2087C79.6409 47.5068 81.0957 41.5913 81.5333 39.2018C81.7644 37.9412 81.7813 36.194 82.3194 35.0737C82.4651 34.9647 82.6603 34.7687 82.8299 34.7566C83.5971 34.7018 84.0856 35.1677 84.6312 35.7129C84.8572 36.4326 84.851 37.1187 84.7794 37.8682C84.4372 41.4622 82.5247 45.5701 80.0409 47.8276C78.8975 48.8663 77.1904 49.8268 75.6897 49.5976C75.1579 49.5165 74.736 49.2501 74.4152 48.7538C72.5517 45.8683 76.3051 38.2595 76.7477 34.7943Z" fill="#292725"/>
<path d="M96.9318 25.6412C97.6093 25.6291 98.342 25.5886 98.9334 26.0318C102.215 28.4899 92.0959 43.7695 92.9103 47.8424L93.1589 47.9824C94.8768 47.1082 97.4843 41.6435 98.2867 39.5915C98.887 38.0562 99.3214 36.429 99.8916 34.8766C100.298 33.7702 100.831 32.7559 101.207 31.6251C101.614 30.396 102.446 26.4057 103.185 25.7427C103.706 25.6142 104.277 25.6803 104.757 25.9577C108.417 28.0718 97.8353 44.407 98.8455 47.9531L99.0734 48.0036C101.322 46.5402 102.779 42.7371 103.964 40.1659C104.943 38.041 106.382 35.5138 108.528 34.7931C109.605 34.4317 110.552 34.7192 111.509 35.303C111.662 35.5208 111.802 35.7399 111.861 36.0158C111.972 36.5298 111.964 37.2414 111.713 37.701C111.561 37.9783 111.486 37.9768 111.214 38.055L110.802 37.7667C110.531 37.2826 110.656 36.6352 110.7 36.0883L110.489 35.8548C110.171 35.899 110 35.9134 109.731 36.1402C108.07 37.5432 106.079 42.5686 105.794 44.8895C105.655 46.0178 105.79 47.0658 106.387 47.9973C106.648 48.1395 106.759 48.255 107.05 48.1712C108.644 47.7125 111.716 39.7043 112.308 37.9444C112.558 37.2027 112.745 35.7013 113.112 35.1148C113.272 34.8599 113.493 34.7484 113.767 34.7242C114.225 34.684 114.998 34.9886 115.325 35.352C115.836 35.9199 115.795 36.8025 115.782 37.5507C115.288 40.1396 111.808 46.1433 112.169 47.9655C114.252 48.4635 116.722 40.3228 118.012 39.8339L118.155 40.0859C118.022 41.9149 116.667 43.969 115.753 45.4655C114.882 46.8939 113.445 49.1128 111.817 49.4034C111.433 49.472 111.042 49.3785 110.729 49.1106C109.973 48.4646 109.92 47.3864 109.819 46.4051C108.819 47.768 107.769 49.2183 106.097 49.3912C105.318 49.4718 104.545 49.221 103.958 48.6213C102.904 47.545 102.802 46.1446 102.731 44.6469C102.146 45.7321 101.477 46.7766 100.694 47.6878C100.036 48.454 99.0332 49.4437 98.0444 49.4259C97.6827 49.4194 97.3569 49.2774 97.1045 48.9774C96.2593 47.9736 96.4307 46.3432 96.4659 45.0772C95.9567 45.9928 95.4167 46.9243 94.7518 47.7018C94.0769 48.4908 93.066 49.4449 92.0526 49.4321C91.6841 49.4274 91.3431 49.2668 91.0945 48.952C90.3279 47.9807 90.439 46.5584 90.4698 45.3519C89.6642 46.6324 88.5993 48.1588 87.402 48.9847C86.8602 49.3586 86.297 49.5537 85.671 49.3503C85.2396 49.2099 84.9156 48.9042 84.7135 48.4465C83.5682 45.8557 85.9158 40.9287 86.7541 38.4726C87.0554 37.5893 87.208 36.6545 87.478 35.7624C87.6073 35.3357 87.7568 34.9881 88.1266 34.7859C88.718 34.7855 89.3478 34.8216 89.8231 35.279C92.2849 37.6491 86.4684 44.9457 86.6812 47.8137L86.8978 47.9859C87.0799 47.9133 87.2563 47.825 87.4164 47.7003C90.7824 45.0783 96.0201 30.4549 96.9318 25.6412Z" fill="#292725"/>
<path fill-rule="evenodd" clip-rule="evenodd" d="M137.836 26.9554C136.445 25.845 134.627 25.486 132.96 25.688C132.832 25.7285 132.703 25.7676 132.573 25.8068C131.689 26.0733 130.788 26.3453 130.141 27.12C129.994 27.4878 130.106 27.9328 130.219 28.3763C130.294 28.6758 130.37 28.9746 130.365 29.2484C130.346 30.3356 129.972 31.6024 129.66 32.6616C129.633 32.7514 129.607 32.8398 129.582 32.9263C127.314 40.6689 124.446 48.2306 121.589 55.7627C120.456 58.7494 119.325 61.7315 118.234 64.7183C117.939 65.5249 117.554 66.6703 117.123 67.9557C115.974 71.3802 114.491 75.7979 113.484 77.4461C112.613 78.8712 110.873 79.8991 109.484 80.4875C107.758 81.2188 105.934 81.4524 104.109 81.5971C104.787 79.2801 105.733 75.6303 104.68 73.2865C104.286 72.4069 103.618 71.7855 102.791 71.4967C101.659 71.1014 100.348 71.2761 99.3141 71.9278C98.1212 72.6805 97.3169 74.0899 96.9659 75.5678C96.5239 77.4332 96.7374 79.736 97.5869 81.4176C98.0979 82.4294 98.8683 83.1492 99.7178 83.771C99.4323 84.3647 99.1274 85.0173 98.8038 85.7101C96.3556 90.951 92.8294 98.4993 88.4074 100.365C87.1153 99.8539 86.0881 99.3324 85.4577 97.8344C83.5666 93.3411 85.6517 85.3271 87.0914 80.835C89.1157 74.5178 91.9856 68.5001 95.9079 63.4555C96.7694 62.3483 97.8587 60.9617 99.041 60.3119C99.4365 60.0946 99.9828 59.8905 100.422 60.0369C100.85 60.1799 101.242 60.6265 101.464 61.0541C101.502 61.4427 101.264 61.9718 100.997 62.5633C100.467 63.7404 99.8253 65.1645 101.033 66.2196C101.679 66.785 102.98 66.9566 103.784 66.7989C104.447 66.6687 104.94 66.005 105.295 65.4024C105.438 65.1603 105.563 64.9043 105.684 64.6474C105.789 62.2828 105.342 59.8371 103.907 58.0325C102.715 56.5342 101.132 55.921 99.3926 55.842C94.2949 55.6103 89.4886 58.3371 85.825 62.2271C79.6531 68.7801 75.1933 79.6287 74.902 89.2826C74.899 89.3744 74.8972 89.4665 74.8963 89.5588C74.0918 89.6999 73.2548 89.8399 72.3991 89.9829C68.9134 90.5657 65.1181 91.2003 61.9497 92.1767C66.1338 74.849 67.9094 57.2647 67.8799 39.3061C67.8793 38.9481 67.8904 38.4788 67.9031 37.9454C67.9543 35.7921 68.0304 32.5935 67.4567 31.4502C67.2169 30.9727 66.7102 30.729 66.2638 30.6052C60.8986 29.1176 39.4739 44.3363 33.8531 48.3813C25.9921 54.0384 17.2971 62.5029 15.1184 73.3494C14.4754 76.5502 14.5731 80.1621 16.1409 83.0115C16.2926 83.2854 16.4556 83.5501 16.6299 83.8058C16.8043 84.0614 16.9892 84.3067 17.1845 84.5416C17.3799 84.7766 17.5849 85.0001 17.7995 85.2121C18.014 85.4241 18.2371 85.6236 18.4687 85.8107C18.7004 85.9977 18.9395 86.1713 19.186 86.3316C19.4325 86.4919 19.6853 86.638 19.9444 86.7701C20.2035 86.9021 20.4675 87.0193 20.7366 87.1217C21.0057 87.2241 21.2786 87.3113 21.5552 87.3832C24.865 88.2381 29.034 87.1476 31.8633 85.0818C34.1131 83.4391 37.0257 80.7103 37.6166 77.5582C37.7932 76.6157 37.6694 75.6651 37.2091 74.8516C36.4891 73.5795 35.1273 72.8167 33.8568 72.5353C33.1153 72.371 32.1795 72.3088 31.5315 72.8249C31.0203 73.232 30.7776 74.5832 30.5587 75.8022C30.4332 76.5012 30.3155 77.1567 30.1594 77.5658C29.001 80.6016 26.03 83.8522 22.9028 83.3234C21.5219 83.0899 20.2629 82.1482 19.4471 80.8668C18.2816 79.0361 18.1098 76.7462 18.4206 74.5693C19.6175 66.1867 26.2139 59.0952 32.008 54.3708C38.3917 49.1654 45.3932 45.4277 52.4622 41.654C52.6829 41.5362 52.9035 41.4184 53.1243 41.3005C53.0611 45.3094 52.8873 49.3121 52.6031 53.3085C52.319 57.3049 51.9248 61.2871 51.4208 65.2551C50.9168 69.2231 50.3038 73.169 49.582 77.0928C48.8601 81.0166 48.0307 84.9106 47.0939 88.7746C46.9646 89.295 46.8376 89.8212 46.71 90.3503C46.1623 92.6209 45.602 94.9433 44.7886 97.0717C32.0329 101.416 16.9397 107.251 7.49441 118.354C3.68834 123.17 0.736348 129.089 1.01869 135.802C1.16834 139.361 2.41427 142.757 4.74881 145.161C7.48782 147.982 11.3479 149.208 14.9819 148.971C26.0087 148.255 37.7879 139.701 44.9532 130.469C50.6695 123.104 54.9392 114.206 58.1302 105.104C58.7184 103.427 59.2453 101.725 59.7723 100.023C60.1437 98.8239 60.5151 97.6244 60.9081 96.4332L74.87 93.41C75.2253 96.9785 76.4315 100.638 78.9499 102.947C80.8705 104.707 83.5653 105.607 86.0115 105.296C90.4197 104.735 94.0959 100.627 96.7323 96.8221C99.3191 93.0878 101.229 88.8464 103.005 84.5591C106.022 84.6726 109.385 83.9211 112.13 82.4572C110.347 88.0985 108.021 95.6641 110.422 101.459C111.072 103.028 112.114 104.33 113.574 104.912C115.287 105.594 117.124 105.146 118.704 104.243C122.794 101.907 125.982 96.9816 128.649 92.8631L128.696 92.7901C128.823 92.5931 128.964 92.3833 129.112 92.1642C129.745 91.2215 130.494 90.1084 130.768 89.1176C130.804 88.9883 130.819 88.8564 130.835 88.723L130.836 88.7144C130.839 88.685 130.843 88.6559 130.847 88.6269C130.849 88.6135 130.851 88.6001 130.853 88.5866C130.864 88.492 130.873 88.398 130.88 88.3023C130.899 88.3353 130.918 88.3678 130.937 88.4016C131.313 89.087 131.294 90.7204 131.277 92.1011C131.269 92.7278 131.262 93.3024 131.293 93.7127C131.682 98.8452 134.365 103.616 138.874 104.992C141.556 105.81 144.219 105.209 146.596 103.633C151.597 100.316 155.128 94.1546 157.707 88.403C157.842 88.1021 157.996 87.7919 158.154 87.4753C158.542 86.6953 158.948 85.8773 159.129 85.0692C159.163 84.9156 159.144 84.7574 159.113 84.6055C163.707 84.5953 168.809 83.3019 172.149 79.4533C173.052 78.4132 174.022 77.1387 174 75.5919C173.991 75.0084 173.843 74.2987 173.448 73.8935C173.249 73.6885 172.991 73.5867 172.721 73.591C172.23 73.599 171.683 74.0751 171.38 74.4794C171.022 74.9537 170.77 75.5254 170.517 76.0963C170.33 76.5213 170.142 76.946 169.912 77.3297C168.287 80.0352 164.762 81.1227 162.075 81.4227C161.474 81.4898 160.872 81.5463 160.27 81.5923C161.179 80.5751 161.43 77.463 161.441 76.0574C161.452 74.6683 161.263 73.1608 160.382 72.1227C160.237 71.9529 160.069 71.8221 159.892 71.7018C158.515 71.2379 156.959 71.067 155.658 71.899C154.457 72.668 153.709 74.1338 153.366 75.6189C152.903 77.6247 153.091 79.7577 154.025 81.5527C154.511 82.4869 155.208 83.1174 155.984 83.7188C155.926 84.357 155.496 85.1683 155.135 85.8484C155.02 86.0659 154.911 86.27 154.825 86.4507L154.69 86.7312C152.717 90.8498 150.301 95.8951 147.106 98.8811C146.308 99.6265 145.302 100.295 144.234 100.165C143.508 100.076 142.923 99.6136 142.476 98.9708C140.831 96.6025 140.989 93.1151 141.305 90.2992C142.326 81.1802 148.116 66.5441 154.652 60.8137C155.191 60.3411 155.921 59.8008 156.63 59.9202C156.981 59.9792 157.682 60.4937 157.873 60.8493C157.892 60.8831 157.906 60.9328 157.918 60.9737C157.921 60.984 157.924 60.9937 157.926 61.0025C157.767 61.4781 157.548 61.8835 157.34 62.2702C156.843 63.192 156.404 64.0075 156.959 65.4144C157.202 66.0329 157.652 66.4427 158.207 66.6586C158.944 66.9447 159.822 66.8906 160.52 66.4943C161.232 66.0897 161.76 65.336 162.007 64.4786C162.434 62.9958 162.004 61.3425 161.393 60.0091C160.575 58.2223 159.382 56.8086 157.669 56.197C154.361 55.0156 149.887 56.497 146.942 58.2866C143.454 60.4052 140.586 63.663 138.278 67.2886C136.689 69.7845 135.55 72.4836 134.405 75.1964C133.729 76.8005 133.05 78.4093 132.275 79.9836C130.787 83.007 121.235 100.773 117.988 100.082L117.949 100.053C117.607 99.7993 117.379 99.6299 117.287 99.1293C116.532 95.0254 125.381 74.4598 129.728 64.3569C130.567 62.4076 131.238 60.8478 131.641 59.8709C133.496 55.3999 135.227 50.867 136.834 46.2724C136.938 45.9728 137.045 45.6667 137.153 45.3548C138.541 41.3732 140.257 36.4518 140.16 32.2766C140.111 30.1721 139.38 28.1875 137.836 26.9554ZM43.275 101.73L43.1224 101.685C31.519 105.918 12.217 113.362 6.2543 126.517C4.76582 129.8 3.7925 133.993 4.81988 137.627C5.13971 138.76 5.65701 139.877 6.32174 140.796C7.45849 141.902 8.63706 142.222 10.0998 142.085C17.5172 141.392 25.8278 134.384 30.4925 128.054C35.4791 121.288 39.0584 113.675 42.0842 105.571C42.1574 105.375 42.2664 105.114 42.3899 104.818C42.7826 103.877 43.321 102.588 43.3127 101.937C43.3121 101.887 43.2954 101.817 43.2828 101.764C43.2799 101.751 43.2772 101.74 43.275 101.73Z" fill="#292725"/>
<path d="M102.713 3.86736C102.883 4.08667 102.956 4.39128 102.932 4.78118C102.932 5.1467 102.822 5.48786 102.604 5.80465C101.996 6.75503 100.708 7.23021 98.7401 7.23021C97.7438 7.23021 96.6017 7.10837 95.3138 6.86468C95.168 6.84031 94.8521 6.76721 94.3661 6.64537C93.1754 6.37731 92.1791 6.17018 91.3772 6.02397C91.3529 6.09708 91.3165 6.20673 91.2679 6.35294C91.2193 6.47479 91.1828 6.57226 91.1585 6.64537C88.7771 12.5913 87.2098 16.8801 86.4565 19.5119C86.4322 19.7556 86.4929 19.9018 86.6387 19.9506C86.6873 19.9749 86.7602 19.9749 86.8574 19.9506C86.9789 19.9018 87.2584 19.6581 87.6958 19.2195C88.1332 18.7565 88.6435 18.1107 89.2267 17.2822C89.7613 16.5024 90.308 15.6495 90.8669 14.7235C91.3772 13.8463 91.8146 13.0421 92.1791 12.311C92.2763 12.1161 92.4221 12.0674 92.6165 12.1648C92.8352 12.2623 92.896 12.4207 92.7988 12.64C92.3614 13.4929 91.8025 14.4798 91.1221 15.6008C90.6118 16.4781 90.1258 17.2944 89.6641 18.0498C88.6192 19.6825 87.7808 20.84 87.149 21.5223C86.5415 22.2047 86.0555 22.5945 85.691 22.692C85.691 22.692 85.6789 22.7042 85.6546 22.7286C85.5574 22.8017 85.448 22.8504 85.3265 22.8748C85.3265 22.8748 85.3144 22.8748 85.2901 22.8748C85.0228 22.9723 84.7555 23.021 84.4882 23.021C84.0508 23.021 83.6742 22.887 83.3583 22.6189C82.6536 22.0584 82.447 21.035 82.7386 19.5485C82.8601 19.0124 83.4312 17.4162 84.4518 14.7601C84.9378 13.4685 85.3144 12.4451 85.5817 11.6896C85.8733 10.9099 86.2256 9.91075 86.6387 8.69232C87.0761 7.4739 87.4042 6.42605 87.6229 5.54879C85.2901 5.37821 83.7957 5.65844 83.1396 6.3895C83.091 6.4626 83.0181 6.51134 82.9209 6.53571C82.7265 6.53571 82.5685 6.45042 82.447 6.27984C82.3255 6.10926 82.3012 5.84121 82.3741 5.47568C82.4227 5.11015 82.5564 4.76899 82.7751 4.4522C83.6013 3.23378 85.1686 2.8317 87.4771 3.24596C87.6715 3.27033 87.8902 3.30688 88.1332 3.35562C88.2304 2.62457 88.2425 2.06409 88.1696 1.67419C88.1453 1.47925 88.2304 1.32085 88.4248 1.19901C88.6192 1.02843 89.0566 0.967508 89.737 1.01625C90.4417 1.04061 91.0006 1.22338 91.4137 1.56454C92.167 2.12501 92.3857 2.99009 92.0697 4.15978C97.7559 5.18326 101.024 5.03705 101.875 3.72115C101.923 3.64804 101.996 3.59931 102.093 3.57494C102.336 3.5262 102.543 3.62367 102.713 3.86736Z" fill="#292725"/>
<path d="M103.759 12.0552C103.856 11.8602 104.002 11.8115 104.196 11.909C104.415 12.0064 104.476 12.1648 104.378 12.3841C103.285 14.6992 101.997 16.9045 100.515 19.0002C99.567 20.3405 98.6922 21.3518 97.8903 22.0341C97.1127 22.7164 96.408 23.0575 95.7762 23.0575C95.6547 23.0575 95.5332 23.0454 95.4117 23.021C95.0229 22.9235 94.7556 22.7042 94.6098 22.363C94.4883 22.1437 94.4155 21.8879 94.3911 21.5954C94.3911 21.2786 94.4397 20.9131 94.5369 20.4989C94.6341 20.0846 94.7313 19.7069 94.8285 19.3657C94.9501 19.0246 95.1201 18.5737 95.3388 18.0133C95.5818 17.4528 95.7762 17.002 95.922 16.6608C96.0678 16.3197 96.2865 15.8323 96.5781 15.1987C97.5501 13.0786 98.024 11.8602 97.9997 11.5434C97.4651 11.6165 96.7361 12.2014 95.8127 13.298C94.9136 14.3945 94.0388 15.7836 93.1883 17.465C92.3621 19.1464 91.8275 20.7182 91.5845 22.1803C91.5602 22.229 91.5359 22.2778 91.5116 22.3265C91.4873 22.4971 91.4144 22.6311 91.2929 22.7286C91.1957 22.8017 91.0864 22.8504 90.9649 22.8748C90.9649 22.8748 90.9527 22.8748 90.9284 22.8748C90.6611 22.9723 90.3938 23.021 90.1265 23.021C89.6891 23.021 89.3125 22.887 88.9966 22.6189C88.2919 22.0584 88.0853 21.035 88.3769 19.5485C88.4984 19.0367 89.0695 17.4406 90.0901 14.7601C90.6733 13.2005 91.1228 11.9699 91.4387 11.0682C91.7789 10.1422 92.192 8.96037 92.678 7.52263C93.164 6.08489 93.4921 4.87865 93.6622 3.90391C93.8566 2.92917 93.9052 2.18593 93.808 1.67419C93.7594 1.47925 93.8444 1.32085 94.0631 1.19901C94.2575 1.02843 94.6949 0.967508 95.3753 1.01625C96.08 1.04061 96.6389 1.22338 97.052 1.56454C97.8539 2.17375 98.0604 3.11193 97.6716 4.3791C97.623 4.54968 97.3314 5.3051 96.7968 6.64537C95.436 10.0082 94.4033 12.6888 93.6986 14.687C95.0108 12.5669 96.3594 11.117 97.7445 10.3372C97.9632 10.191 98.2427 10.0691 98.5829 9.97167C98.9474 9.84982 99.3362 9.76453 99.7493 9.7158C100.162 9.66706 100.515 9.74017 100.806 9.93511C101.171 10.1788 101.341 10.5687 101.317 11.1048C101.219 12.0795 100.503 13.8706 99.1661 16.4781C98.5586 17.6477 98.1576 18.4641 97.9632 18.9271C97.6959 19.5607 97.6109 19.9384 97.7081 20.0602C98.0969 19.9627 98.9595 19.0489 100.296 17.3188C101.657 15.5642 102.811 13.8097 103.759 12.0552Z" fill="#292725"/>
<path d="M113.855 12.64C113.952 12.4207 114.098 12.3598 114.292 12.4573C114.511 12.5547 114.572 12.7131 114.474 12.9324C113.891 14.2483 113.272 15.4668 112.615 16.5877C111.959 17.7087 111.194 18.8052 110.319 19.8775C109.444 20.9253 108.472 21.7538 107.403 22.363C106.334 22.9723 105.228 23.2769 104.086 23.2769C103.868 23.2769 103.637 23.2647 103.394 23.2403C102.64 23.1428 102.033 22.7651 101.571 22.1072C101.085 21.4249 100.794 20.5232 100.696 19.4023C100.526 17.4284 100.927 15.5155 101.899 13.6635C103.017 11.5434 104.597 10.191 106.638 9.60614C108.339 9.11877 109.566 9.38682 110.319 10.4103C110.781 11.0195 110.975 11.8115 110.902 12.7862C110.854 13.7366 110.538 14.6748 109.955 15.6008C109.59 16.21 109.189 16.6974 108.752 17.0629C108.339 17.4284 107.95 17.6599 107.585 17.7574C107.221 17.8305 106.917 17.8671 106.674 17.8671C106.431 17.8427 106.212 17.794 106.018 17.7208C105.313 17.4528 104.815 16.9532 104.524 16.2222C103.989 17.5868 103.77 18.8296 103.868 19.9506C103.965 20.9497 104.317 21.5589 104.925 21.7782C105.168 21.8757 105.617 21.7782 106.273 21.4858C106.954 21.1934 107.695 20.706 108.497 20.0237C110.659 18.196 112.445 15.7348 113.855 12.64ZM107.731 12.0552C106.686 12.7131 105.787 13.7244 105.034 15.089C105.083 15.4789 105.253 15.7592 105.544 15.9298C105.909 16.1734 106.273 16.2222 106.638 16.076C107.27 15.7836 107.768 15.3571 108.132 14.7966C108.497 14.2118 108.703 13.6148 108.752 13.0055C108.776 12.4451 108.667 12.0917 108.424 11.9455C108.254 11.848 108.023 11.8846 107.731 12.0552Z" fill="#292725"/>
<path d="M89.5572 28.6508C90.0457 28.6635 90.4564 28.7777 90.9028 29.0106C91.2607 29.1973 91.5978 29.4919 91.7246 29.9346C92.0618 31.1095 91.2387 32.6109 90.7973 33.6519C90.3622 33.5946 89.8216 33.326 89.4304 33.0942C89.0681 32.8793 88.7159 32.5552 88.6004 32.0895C88.3003 30.8813 89.0656 29.6631 89.5572 28.6508Z" stroke="white" stroke-width="0.6" mask="url(#path-1-outside-1_110_1361)"/>
<path d="M76.7477 34.7943C77.4553 34.6897 78.2935 34.7527 78.8768 35.2745C81.4881 37.6102 75.578 44.8837 76.0426 47.6805C76.0997 48.0256 76.1977 48.0465 76.4388 48.2368C76.7446 48.2706 77.0616 48.301 77.3618 48.2087C79.6409 47.5068 81.0957 41.5913 81.5333 39.2018C81.7644 37.9412 81.7813 36.194 82.3194 35.0737C82.4651 34.9647 82.6603 34.7687 82.8299 34.7566C83.5971 34.7018 84.0856 35.1677 84.6312 35.7129C84.8572 36.4326 84.851 37.1187 84.7794 37.8682C84.4372 41.4622 82.5247 45.5701 80.0409 47.8276C78.8975 48.8663 77.1904 49.8268 75.6897 49.5976C75.1579 49.5165 74.736 49.2501 74.4152 48.7538C72.5517 45.8683 76.3051 38.2595 76.7477 34.7943Z" stroke="white" stroke-width="0.6" mask="url(#path-1-outside-1_110_1361)"/>
<path d="M96.9318 25.6412C97.6093 25.6291 98.342 25.5886 98.9334 26.0318C102.215 28.4899 92.0959 43.7695 92.9103 47.8424L93.1589 47.9824C94.8768 47.1082 97.4843 41.6435 98.2867 39.5915C98.887 38.0562 99.3214 36.429 99.8916 34.8766C100.298 33.7702 100.831 32.7559 101.207 31.6251C101.614 30.396 102.446 26.4057 103.185 25.7427C103.706 25.6142 104.277 25.6803 104.757 25.9577C108.417 28.0718 97.8353 44.407 98.8455 47.9531L99.0734 48.0036C101.322 46.5402 102.779 42.7371 103.964 40.1659C104.943 38.041 106.382 35.5138 108.528 34.7931C109.605 34.4317 110.552 34.7192 111.509 35.303C111.662 35.5208 111.802 35.7399 111.861 36.0158C111.972 36.5298 111.964 37.2414 111.713 37.701C111.561 37.9783 111.486 37.9768 111.214 38.055L110.802 37.7667C110.531 37.2826 110.656 36.6352 110.7 36.0883L110.489 35.8548C110.171 35.899 110 35.9134 109.731 36.1402C108.07 37.5432 106.079 42.5686 105.794 44.8895C105.655 46.0178 105.79 47.0658 106.387 47.9973C106.648 48.1395 106.759 48.255 107.05 48.1712C108.644 47.7125 111.716 39.7043 112.308 37.9444C112.558 37.2027 112.745 35.7013 113.112 35.1148C113.272 34.8599 113.493 34.7484 113.767 34.7242C114.225 34.684 114.998 34.9886 115.325 35.352C115.836 35.9199 115.795 36.8025 115.782 37.5507C115.288 40.1396 111.808 46.1433 112.169 47.9655C114.252 48.4635 116.722 40.3228 118.012 39.8339L118.155 40.0859C118.022 41.9149 116.667 43.969 115.753 45.4655C114.882 46.8939 113.445 49.1128 111.817 49.4034C111.433 49.472 111.042 49.3785 110.729 49.1106C109.973 48.4646 109.92 47.3864 109.819 46.4051C108.819 47.768 107.769 49.2183 106.097 49.3912C105.318 49.4718 104.545 49.221 103.958 48.6213C102.904 47.545 102.802 46.1446 102.731 44.6469C102.146 45.7321 101.477 46.7766 100.694 47.6878C100.036 48.454 99.0332 49.4437 98.0444 49.4259C97.6827 49.4194 97.3569 49.2774 97.1045 48.9774C96.2593 47.9736 96.4307 46.3432 96.4659 45.0772C95.9567 45.9928 95.4167 46.9243 94.7518 47.7018C94.0769 48.4908 93.066 49.4449 92.0526 49.4321C91.6841 49.4274 91.3431 49.2668 91.0945 48.952C90.3279 47.9807 90.439 46.5584 90.4698 45.3519C89.6642 46.6324 88.5993 48.1588 87.402 48.9847C86.8602 49.3586 86.297 49.5537 85.671 49.3503C85.2396 49.2099 84.9156 48.9042 84.7135 48.4465C83.5682 45.8557 85.9158 40.9287 86.7541 38.4726C87.0554 37.5893 87.208 36.6545 87.478 35.7624C87.6073 35.3357 87.7568 34.9881 88.1266 34.7859C88.718 34.7855 89.3478 34.8216 89.8231 35.279C92.2849 37.6491 86.4684 44.9457 86.6812 47.8137L86.8978 47.9859C87.0799 47.9133 87.2563 47.825 87.4164 47.7003C90.7824 45.0783 96.0201 30.4549 96.9318 25.6412Z" stroke="white" stroke-width="0.6" mask="url(#path-1-outside-1_110_1361)"/>
<path fill-rule="evenodd" clip-rule="evenodd" d="M137.836 26.9554C136.445 25.845 134.627 25.486 132.96 25.688C132.832 25.7285 132.703 25.7676 132.573 25.8068C131.689 26.0733 130.788 26.3453 130.141 27.12C129.994 27.4878 130.106 27.9328 130.219 28.3763C130.294 28.6758 130.37 28.9746 130.365 29.2484C130.346 30.3356 129.972 31.6024 129.66 32.6616C129.633 32.7514 129.607 32.8398 129.582 32.9263C127.314 40.6689 124.446 48.2306 121.589 55.7627C120.456 58.7494 119.325 61.7315 118.234 64.7183C117.939 65.5249 117.554 66.6703 117.123 67.9557C115.974 71.3802 114.491 75.7979 113.484 77.4461C112.613 78.8712 110.873 79.8991 109.484 80.4875C107.758 81.2188 105.934 81.4524 104.109 81.5971C104.787 79.2801 105.733 75.6303 104.68 73.2865C104.286 72.4069 103.618 71.7855 102.791 71.4967C101.659 71.1014 100.348 71.2761 99.3141 71.9278C98.1212 72.6805 97.3169 74.0899 96.9659 75.5678C96.5239 77.4332 96.7374 79.736 97.5869 81.4176C98.0979 82.4294 98.8683 83.1492 99.7178 83.771C99.4323 84.3647 99.1274 85.0173 98.8038 85.7101C96.3556 90.951 92.8294 98.4993 88.4074 100.365C87.1153 99.8539 86.0881 99.3324 85.4577 97.8344C83.5666 93.3411 85.6517 85.3271 87.0914 80.835C89.1157 74.5178 91.9856 68.5001 95.9079 63.4555C96.7694 62.3483 97.8587 60.9617 99.041 60.3119C99.4365 60.0946 99.9828 59.8905 100.422 60.0369C100.85 60.1799 101.242 60.6265 101.464 61.0541C101.502 61.4427 101.264 61.9718 100.997 62.5633C100.467 63.7404 99.8253 65.1645 101.033 66.2196C101.679 66.785 102.98 66.9566 103.784 66.7989C104.447 66.6687 104.94 66.005 105.295 65.4024C105.438 65.1603 105.563 64.9043 105.684 64.6474C105.789 62.2828 105.342 59.8371 103.907 58.0325C102.715 56.5342 101.132 55.921 99.3926 55.842C94.2949 55.6103 89.4886 58.3371 85.825 62.2271C79.6531 68.7801 75.1933 79.6287 74.902 89.2826C74.899 89.3744 74.8972 89.4665 74.8963 89.5588C74.0918 89.6999 73.2548 89.8399 72.3991 89.9829C68.9134 90.5657 65.1181 91.2003 61.9497 92.1767C66.1338 74.849 67.9094 57.2647 67.8799 39.3061C67.8793 38.9481 67.8904 38.4788 67.9031 37.9454C67.9543 35.7921 68.0304 32.5935 67.4567 31.4502C67.2169 30.9727 66.7102 30.729 66.2638 30.6052C60.8986 29.1176 39.4739 44.3363 33.8531 48.3813C25.9921 54.0384 17.2971 62.5029 15.1184 73.3494C14.4754 76.5502 14.5731 80.1621 16.1409 83.0115C16.2926 83.2854 16.4556 83.5501 16.6299 83.8058C16.8043 84.0614 16.9892 84.3067 17.1845 84.5416C17.3799 84.7766 17.5849 85.0001 17.7995 85.2121C18.014 85.4241 18.2371 85.6236 18.4687 85.8107C18.7004 85.9977 18.9395 86.1713 19.186 86.3316C19.4325 86.4919 19.6853 86.638 19.9444 86.7701C20.2035 86.9021 20.4675 87.0193 20.7366 87.1217C21.0057 87.2241 21.2786 87.3113 21.5552 87.3832C24.865 88.2381 29.034 87.1476 31.8633 85.0818C34.1131 83.4391 37.0257 80.7103 37.6166 77.5582C37.7932 76.6157 37.6694 75.6651 37.2091 74.8516C36.4891 73.5795 35.1273 72.8167 33.8568 72.5353C33.1153 72.371 32.1795 72.3088 31.5315 72.8249C31.0203 73.232 30.7776 74.5832 30.5587 75.8022C30.4332 76.5012 30.3155 77.1567 30.1594 77.5658C29.001 80.6016 26.03 83.8522 22.9028 83.3234C21.5219 83.0899 20.2629 82.1482 19.4471 80.8668C18.2816 79.0361 18.1098 76.7462 18.4206 74.5693C19.6175 66.1867 26.2139 59.0952 32.008 54.3708C38.3917 49.1654 45.3932 45.4277 52.4622 41.654C52.6829 41.5362 52.9035 41.4184 53.1243 41.3005C53.0611 45.3094 52.8873 49.3121 52.6031 53.3085C52.319 57.3049 51.9248 61.2871 51.4208 65.2551C50.9168 69.2231 50.3038 73.169 49.582 77.0928C48.8601 81.0166 48.0307 84.9106 47.0939 88.7746C46.9646 89.295 46.8376 89.8212 46.71 90.3503C46.1623 92.6209 45.602 94.9433 44.7886 97.0717C32.0329 101.416 16.9397 107.251 7.49441 118.354C3.68834 123.17 0.736348 129.089 1.01869 135.802C1.16834 139.361 2.41427 142.757 4.74881 145.161C7.48782 147.982 11.3479 149.208 14.9819 148.971C26.0087 148.255 37.7879 139.701 44.9532 130.469C50.6695 123.104 54.9392 114.206 58.1302 105.104C58.7184 103.427 59.2453 101.725 59.7723 100.023C60.1437 98.8239 60.5151 97.6244 60.9081 96.4332L74.87 93.41C75.2253 96.9785 76.4315 100.638 78.9499 102.947C80.8705 104.707 83.5653 105.607 86.0115 105.296C90.4197 104.735 94.0959 100.627 96.7323 96.8221C99.3191 93.0878 101.229 88.8464 103.005 84.5591C106.022 84.6726 109.385 83.9211 112.13 82.4572C110.347 88.0985 108.021 95.6641 110.422 101.459C111.072 103.028 112.114 104.33 113.574 104.912C115.287 105.594 117.124 105.146 118.704 104.243C122.794 101.907 125.982 96.9816 128.649 92.8631L128.696 92.7901C128.823 92.5931 128.964 92.3833 129.112 92.1642C129.745 91.2215 130.494 90.1084 130.768 89.1176C130.804 88.9883 130.819 88.8564 130.835 88.723L130.836 88.7144C130.839 88.685 130.843 88.6559 130.847 88.6269C130.849 88.6135 130.851 88.6001 130.853 88.5866C130.864 88.492 130.873 88.398 130.88 88.3023C130.899 88.3353 130.918 88.3678 130.937 88.4016C131.313 89.087 131.294 90.7204 131.277 92.1011C131.269 92.7278 131.262 93.3024 131.293 93.7127C131.682 98.8452 134.365 103.616 138.874 104.992C141.556 105.81 144.219 105.209 146.596 103.633C151.597 100.316 155.128 94.1546 157.707 88.403C157.842 88.1021 157.996 87.7919 158.154 87.4753C158.542 86.6953 158.948 85.8773 159.129 85.0692C159.163 84.9156 159.144 84.7574 159.113 84.6055C163.707 84.5953 168.809 83.3019 172.149 79.4533C173.052 78.4132 174.022 77.1387 174 75.5919C173.991 75.0084 173.843 74.2987 173.448 73.8935C173.249 73.6885 172.991 73.5867 172.721 73.591C172.23 73.599 171.683 74.0751 171.38 74.4794C171.022 74.9537 170.77 75.5254 170.517 76.0963C170.33 76.5213 170.142 76.946 169.912 77.3297C168.287 80.0352 164.762 81.1227 162.075 81.4227C161.474 81.4898 160.872 81.5463 160.27 81.5923C161.179 80.5751 161.43 77.463 161.441 76.0574C161.452 74.6683 161.263 73.1608 160.382 72.1227C160.237 71.9529 160.069 71.8221 159.892 71.7018C158.515 71.2379 156.959 71.067 155.658 71.899C154.457 72.668 153.709 74.1338 153.366 75.6189C152.903 77.6247 153.091 79.7577 154.025 81.5527C154.511 82.4869 155.208 83.1174 155.984 83.7188C155.926 84.357 155.496 85.1683 155.135 85.8484C155.02 86.0659 154.911 86.27 154.825 86.4507L154.69 86.7312C152.717 90.8498 150.301 95.8951 147.106 98.8811C146.308 99.6265 145.302 100.295 144.234 100.165C143.508 100.076 142.923 99.6136 142.476 98.9708C140.831 96.6025 140.989 93.1151 141.305 90.2992C142.326 81.1802 148.116 66.5441 154.652 60.8137C155.191 60.3411 155.921 59.8008 156.63 59.9202C156.981 59.9792 157.682 60.4937 157.873 60.8493C157.892 60.8831 157.906 60.9328 157.918 60.9737C157.921 60.984 157.924 60.9937 157.926 61.0025C157.767 61.4781 157.548 61.8835 157.34 62.2702C156.843 63.192 156.404 64.0075 156.959 65.4144C157.202 66.0329 157.652 66.4427 158.207 66.6586C158.944 66.9447 159.822 66.8906 160.52 66.4943C161.232 66.0897 161.76 65.336 162.007 64.4786C162.434 62.9958 162.004 61.3425 161.393 60.0091C160.575 58.2223 159.382 56.8086 157.669 56.197C154.361 55.0156 149.887 56.497 146.942 58.2866C143.454 60.4052 140.586 63.663 138.278 67.2886C136.689 69.7845 135.55 72.4836 134.405 75.1964C133.729 76.8005 133.05 78.4093 132.275 79.9836C130.787 83.007 121.235 100.773 117.988 100.082L117.949 100.053C117.607 99.7993 117.379 99.6299 117.287 99.1293C116.532 95.0254 125.381 74.4598 129.728 64.3569C130.567 62.4076 131.238 60.8478 131.641 59.8709C133.496 55.3999 135.227 50.867 136.834 46.2724C136.938 45.9728 137.045 45.6667 137.153 45.3548C138.541 41.3732 140.257 36.4518 140.16 32.2766C140.111 30.1721 139.38 28.1875 137.836 26.9554ZM43.275 101.73L43.1224 101.685C31.519 105.918 12.217 113.362 6.2543 126.517C4.76582 129.8 3.7925 133.993 4.81988 137.627C5.13971 138.76 5.65701 139.877 6.32174 140.796C7.45849 141.902 8.63706 142.222 10.0998 142.085C17.5172 141.392 25.8278 134.384 30.4925 128.054C35.4791 121.288 39.0584 113.675 42.0842 105.571C42.1574 105.375 42.2664 105.114 42.3899 104.818C42.7826 103.877 43.321 102.588 43.3127 101.937C43.3121 101.887 43.2954 101.817 43.2828 101.764C43.2799 101.751 43.2772 101.74 43.275 101.73Z" stroke="white" stroke-width="0.6" mask="url(#path-1-outside-1_110_1361)"/>
<path d="M102.713 3.86736C102.883 4.08667 102.956 4.39128 102.932 4.78118C102.932 5.1467 102.822 5.48786 102.604 5.80465C101.996 6.75503 100.708 7.23021 98.7401 7.23021C97.7438 7.23021 96.6017 7.10837 95.3138 6.86468C95.168 6.84031 94.8521 6.76721 94.3661 6.64537C93.1754 6.37731 92.1791 6.17018 91.3772 6.02397C91.3529 6.09708 91.3165 6.20673 91.2679 6.35294C91.2193 6.47479 91.1828 6.57226 91.1585 6.64537C88.7771 12.5913 87.2098 16.8801 86.4565 19.5119C86.4322 19.7556 86.4929 19.9018 86.6387 19.9506C86.6873 19.9749 86.7602 19.9749 86.8574 19.9506C86.9789 19.9018 87.2584 19.6581 87.6958 19.2195C88.1332 18.7565 88.6435 18.1107 89.2267 17.2822C89.7613 16.5024 90.308 15.6495 90.8669 14.7235C91.3772 13.8463 91.8146 13.0421 92.1791 12.311C92.2763 12.1161 92.4221 12.0674 92.6165 12.1648C92.8352 12.2623 92.896 12.4207 92.7988 12.64C92.3614 13.4929 91.8025 14.4798 91.1221 15.6008C90.6118 16.4781 90.1258 17.2944 89.6641 18.0498C88.6192 19.6825 87.7808 20.84 87.149 21.5223C86.5415 22.2047 86.0555 22.5945 85.691 22.692C85.691 22.692 85.6789 22.7042 85.6546 22.7286C85.5574 22.8017 85.448 22.8504 85.3265 22.8748C85.3265 22.8748 85.3144 22.8748 85.2901 22.8748C85.0228 22.9723 84.7555 23.021 84.4882 23.021C84.0508 23.021 83.6742 22.887 83.3583 22.6189C82.6536 22.0584 82.447 21.035 82.7386 19.5485C82.8601 19.0124 83.4312 17.4162 84.4518 14.7601C84.9378 13.4685 85.3144 12.4451 85.5817 11.6896C85.8733 10.9099 86.2256 9.91075 86.6387 8.69232C87.0761 7.4739 87.4042 6.42605 87.6229 5.54879C85.2901 5.37821 83.7957 5.65844 83.1396 6.3895C83.091 6.4626 83.0181 6.51134 82.9209 6.53571C82.7265 6.53571 82.5685 6.45042 82.447 6.27984C82.3255 6.10926 82.3012 5.84121 82.3741 5.47568C82.4227 5.11015 82.5564 4.76899 82.7751 4.4522C83.6013 3.23378 85.1686 2.8317 87.4771 3.24596C87.6715 3.27033 87.8902 3.30688 88.1332 3.35562C88.2304 2.62457 88.2425 2.06409 88.1696 1.67419C88.1453 1.47925 88.2304 1.32085 88.4248 1.19901C88.6192 1.02843 89.0566 0.967508 89.737 1.01625C90.4417 1.04061 91.0006 1.22338 91.4137 1.56454C92.167 2.12501 92.3857 2.99009 92.0697 4.15978C97.7559 5.18326 101.024 5.03705 101.875 3.72115C101.923 3.64804 101.996 3.59931 102.093 3.57494C102.336 3.5262 102.543 3.62367 102.713 3.86736Z" stroke="white" stroke-width="0.6" mask="url(#path-1-outside-1_110_1361)"/>
<path d="M103.759 12.0552C103.856 11.8602 104.002 11.8115 104.196 11.909C104.415 12.0064 104.476 12.1648 104.378 12.3841C103.285 14.6992 101.997 16.9045 100.515 19.0002C99.567 20.3405 98.6922 21.3518 97.8903 22.0341C97.1127 22.7164 96.408 23.0575 95.7762 23.0575C95.6547 23.0575 95.5332 23.0454 95.4117 23.021C95.0229 22.9235 94.7556 22.7042 94.6098 22.363C94.4883 22.1437 94.4155 21.8879 94.3911 21.5954C94.3911 21.2786 94.4397 20.9131 94.5369 20.4989C94.6341 20.0846 94.7313 19.7069 94.8285 19.3657C94.9501 19.0246 95.1201 18.5737 95.3388 18.0133C95.5818 17.4528 95.7762 17.002 95.922 16.6608C96.0678 16.3197 96.2865 15.8323 96.5781 15.1987C97.5501 13.0786 98.024 11.8602 97.9997 11.5434C97.4651 11.6165 96.7361 12.2014 95.8127 13.298C94.9136 14.3945 94.0388 15.7836 93.1883 17.465C92.3621 19.1464 91.8275 20.7182 91.5845 22.1803C91.5602 22.229 91.5359 22.2778 91.5116 22.3265C91.4873 22.4971 91.4144 22.6311 91.2929 22.7286C91.1957 22.8017 91.0864 22.8504 90.9649 22.8748C90.9649 22.8748 90.9527 22.8748 90.9284 22.8748C90.6611 22.9723 90.3938 23.021 90.1265 23.021C89.6891 23.021 89.3125 22.887 88.9966 22.6189C88.2919 22.0584 88.0853 21.035 88.3769 19.5485C88.4984 19.0367 89.0695 17.4406 90.0901 14.7601C90.6733 13.2005 91.1228 11.9699 91.4387 11.0682C91.7789 10.1422 92.192 8.96037 92.678 7.52263C93.164 6.08489 93.4921 4.87865 93.6622 3.90391C93.8566 2.92917 93.9052 2.18593 93.808 1.67419C93.7594 1.47925 93.8444 1.32085 94.0631 1.19901C94.2575 1.02843 94.6949 0.967508 95.3753 1.01625C96.08 1.04061 96.6389 1.22338 97.052 1.56454C97.8539 2.17375 98.0604 3.11193 97.6716 4.3791C97.623 4.54968 97.3314 5.3051 96.7968 6.64537C95.436 10.0082 94.4033 12.6888 93.6986 14.687C95.0108 12.5669 96.3594 11.117 97.7445 10.3372C97.9632 10.191 98.2427 10.0691 98.5829 9.97167C98.9474 9.84982 99.3362 9.76453 99.7493 9.7158C100.162 9.66706 100.515 9.74017 100.806 9.93511C101.171 10.1788 101.341 10.5687 101.317 11.1048C101.219 12.0795 100.503 13.8706 99.1661 16.4781C98.5586 17.6477 98.1576 18.4641 97.9632 18.9271C97.6959 19.5607 97.6109 19.9384 97.7081 20.0602C98.0969 19.9627 98.9595 19.0489 100.296 17.3188C101.657 15.5642 102.811 13.8097 103.759 12.0552Z" stroke="white" stroke-width="0.6" mask="url(#path-1-outside-1_110_1361)"/>
<path d="M113.855 12.64C113.952 12.4207 114.098 12.3598 114.292 12.4573C114.511 12.5547 114.572 12.7131 114.474 12.9324C113.891 14.2483 113.272 15.4668 112.615 16.5877C111.959 17.7087 111.194 18.8052 110.319 19.8775C109.444 20.9253 108.472 21.7538 107.403 22.363C106.334 22.9723 105.228 23.2769 104.086 23.2769C103.868 23.2769 103.637 23.2647 103.394 23.2403C102.64 23.1428 102.033 22.7651 101.571 22.1072C101.085 21.4249 100.794 20.5232 100.696 19.4023C100.526 17.4284 100.927 15.5155 101.899 13.6635C103.017 11.5434 104.597 10.191 106.638 9.60614C108.339 9.11877 109.566 9.38682 110.319 10.4103C110.781 11.0195 110.975 11.8115 110.902 12.7862C110.854 13.7366 110.538 14.6748 109.955 15.6008C109.59 16.21 109.189 16.6974 108.752 17.0629C108.339 17.4284 107.95 17.6599 107.585 17.7574C107.221 17.8305 106.917 17.8671 106.674 17.8671C106.431 17.8427 106.212 17.794 106.018 17.7208C105.313 17.4528 104.815 16.9532 104.524 16.2222C103.989 17.5868 103.77 18.8296 103.868 19.9506C103.965 20.9497 104.317 21.5589 104.925 21.7782C105.168 21.8757 105.617 21.7782 106.273 21.4858C106.954 21.1934 107.695 20.706 108.497 20.0237C110.659 18.196 112.445 15.7348 113.855 12.64ZM107.731 12.0552C106.686 12.7131 105.787 13.7244 105.034 15.089C105.083 15.4789 105.253 15.7592 105.544 15.9298C105.909 16.1734 106.273 16.2222 106.638 16.076C107.27 15.7836 107.768 15.3571 108.132 14.7966C108.497 14.2118 108.703 13.6148 108.752 13.0055C108.776 12.4451 108.667 12.0917 108.424 11.9455C108.254 11.848 108.023 11.8846 107.731 12.0552Z" stroke="white" stroke-width="0.6" mask="url(#path-1-outside-1_110_1361)"/>
</svg>
