<svg width="41" height="29" viewBox="0 0 41 29" fill="none" xmlns="http://www.w3.org/2000/svg">
<path d="M21.125 10.875H27.125" stroke="#292725" stroke-width="1.3"/>
<path d="M8.125 6.875H32.125" stroke="#292725" stroke-width="1.3"/>
<path d="M27.125 13.875V3.875C27.125 2.218 25.782 0.875 24.125 0.875C22.468 0.875 21.125 2.218 21.125 3.875M21.125 13.875V3.875C21.125 2.218 19.782 0.875 18.125 0.875C16.468 0.875 15.125 2.218 15.125 3.875" stroke="#292725" stroke-width="1.3"/>
<mask id="mask0_69_756" style="mask-type:alpha" maskUnits="userSpaceOnUse" x="0" y="8" width="41" height="21">
<path d="M40.018 8.75049V28.8975H0V8.75049H40.018Z" fill="black"/>
</mask>
<g mask="url(#mask0_69_756)">
<path d="M8.13623 25.3521C7.41223 25.3521 6.68823 25.1021 6.13623 24.6021C5.58423 24.1021 4.86023 23.8521 4.13623 23.8521C3.41223 23.8521 2.68823 24.1021 2.13623 24.6021C1.58423 25.1021 0.860229 25.3521 0.136229 25.3521C-0.58777 25.3521 -1.31177 25.1021 -1.86377 24.6021C-2.41577 24.1021 -3.13977 23.8521 -3.86377 23.8521C-4.58777 23.8521 -5.31177 24.1021 -5.86377 24.6021C-6.41577 25.1021 -7.13977 25.3521 -7.86377 25.3521C-8.58777 25.3521 -9.31177 25.1021 -9.86377 24.6021C-10.4158 24.1021 -11.1398 23.8521 -11.8638 23.8521C-12.5878 23.8521 -13.3118 24.1021 -13.8638 24.6021C-14.4158 25.1021 -15.1398 25.3521 -15.8638 25.3521M56.1242 25.3661C55.4002 25.3661 54.6762 25.1161 54.1242 24.6161C53.5722 24.1161 52.8482 23.8661 52.1242 23.8661C51.4002 23.8661 50.6762 24.1161 50.1242 24.6161C49.5722 25.1161 48.8482 25.3661 48.1242 25.3661C47.4002 25.3661 46.6762 25.1161 46.1242 24.6161C45.5722 24.1161 44.8482 23.8661 44.1242 23.8661C43.4002 23.8661 42.6762 24.1161 42.1242 24.6161C41.5722 25.1161 40.8482 25.3661 40.1242 25.3661C39.4002 25.3661 38.6762 25.1161 38.1242 24.6161C37.5722 24.1161 36.8482 23.8661 36.1242 23.8661C35.4002 23.8661 34.6762 24.1161 34.1242 24.6161C33.5722 25.1161 32.8482 25.3661 32.1242 25.3661M32.1252 25.3751C31.4012 25.3751 30.6772 25.1251 30.1252 24.6251C29.5732 24.1251 28.8492 23.8751 28.1252 23.8751C27.4012 23.8751 26.6772 24.1251 26.1252 24.6251C25.5732 25.1251 24.8492 25.3751 24.1252 25.3751C23.4012 25.3751 22.6772 25.1251 22.1252 24.6251C21.5732 24.1251 20.8492 23.8751 20.1252 23.8751C19.4012 23.8751 18.6772 24.1251 18.1252 24.6251C17.5732 25.1251 16.8492 25.3751 16.1252 25.3751C15.4012 25.3751 14.6772 25.1251 14.1252 24.6251C13.5732 24.1251 12.8492 23.8751 12.1252 23.8751C11.4012 23.8751 10.6772 24.1251 10.1252 24.6251C9.57323 25.1251 8.84923 25.3751 8.12523 25.3751" stroke="#292725" stroke-width="1.3"/>
<path d="M8.13623 20.3521C7.41223 20.3521 6.68823 20.1021 6.13623 19.6021C5.58423 19.1021 4.86023 18.8521 4.13623 18.8521C3.41223 18.8521 2.68823 19.1021 2.13623 19.6021C1.58423 20.1021 0.860229 20.3521 0.136229 20.3521C-0.58777 20.3521 -1.31177 20.1021 -1.86377 19.6021C-2.41577 19.1021 -3.13977 18.8521 -3.86377 18.8521C-4.58777 18.8521 -5.31177 19.1021 -5.86377 19.6021C-6.41577 20.1021 -7.13977 20.3521 -7.86377 20.3521C-8.58777 20.3521 -9.31177 20.1021 -9.86377 19.6021C-10.4158 19.1021 -11.1398 18.8521 -11.8638 18.8521C-12.5878 18.8521 -13.3118 19.1021 -13.8638 19.6021C-14.4158 20.1021 -15.1398 20.3521 -15.8638 20.3521M56.1242 20.3661C55.4002 20.3661 54.6762 20.1161 54.1242 19.6161C53.5722 19.1161 52.8482 18.8661 52.1242 18.8661C51.4002 18.8661 50.6762 19.1161 50.1242 19.6161C49.5722 20.1161 48.8482 20.3661 48.1242 20.3661C47.4002 20.3661 46.6762 20.1161 46.1242 19.6161C45.5722 19.1161 44.8482 18.8661 44.1242 18.8661C43.4002 18.8661 42.6762 19.1161 42.1242 19.6161C41.5722 20.1161 40.8482 20.3661 40.1242 20.3661C39.4002 20.3661 38.6762 20.1161 38.1242 19.6161C37.5722 19.1161 36.8482 18.8661 36.1242 18.8661C35.4002 18.8661 34.6762 19.1161 34.1242 19.6161C33.5722 20.1161 32.8482 20.3661 32.1242 20.3661M32.1252 20.3751C31.4012 20.3751 30.6772 20.1251 30.1252 19.6251C29.5732 19.1251 28.8492 18.8751 28.1252 18.8751C27.4012 18.8751 26.6772 19.1251 26.1252 19.6251C25.5732 20.1251 24.8492 20.3751 24.1252 20.3751C23.4012 20.3751 22.6772 20.1251 22.1252 19.6251C21.5732 19.1251 20.8492 18.8751 20.1252 18.8751C19.4012 18.8751 18.6772 19.1251 18.1252 19.6251C17.5732 20.1251 16.8492 20.3751 16.1252 20.3751C15.4012 20.3751 14.6772 20.1251 14.1252 19.6251C13.5732 19.1251 12.8492 18.8751 12.1252 18.8751C11.4012 18.8751 10.6772 19.1251 10.1252 19.6251C9.57323 20.1251 8.84923 20.3751 8.12523 20.3751" stroke="#292725" stroke-width="1.3"/>
<path d="M8.13623 15.3521C7.41223 15.3521 6.68823 15.1021 6.13623 14.6021C5.58423 14.1021 4.86023 13.8521 4.13623 13.8521C3.41223 13.8521 2.68823 14.1021 2.13623 14.6021C1.58423 15.1021 0.860229 15.3521 0.136229 15.3521C-0.58777 15.3521 -1.31177 15.1021 -1.86377 14.6021C-2.41577 14.1021 -3.13977 13.8521 -3.86377 13.8521C-4.58777 13.8521 -5.31177 14.1021 -5.86377 14.6021C-6.41577 15.1021 -7.13977 15.3521 -7.86377 15.3521C-8.58777 15.3521 -9.31177 15.1021 -9.86377 14.6021C-10.4158 14.1021 -11.1398 13.8521 -11.8638 13.8521C-12.5878 13.8521 -13.3118 14.1021 -13.8638 14.6021C-14.4158 15.1021 -15.1398 15.3521 -15.8638 15.3521M56.1242 15.3661C55.4002 15.3661 54.6762 15.1161 54.1242 14.6161C53.5722 14.1161 52.8482 13.8661 52.1242 13.8661C51.4002 13.8661 50.6762 14.1161 50.1242 14.6161C49.5722 15.1161 48.8482 15.3661 48.1242 15.3661C47.4002 15.3661 46.6762 15.1161 46.1242 14.6161C45.5722 14.1161 44.8482 13.8661 44.1242 13.8661C43.4002 13.8661 42.6762 14.1161 42.1242 14.6161C41.5722 15.1161 40.8482 15.3661 40.1242 15.3661C39.4002 15.3661 38.6762 15.1161 38.1242 14.6161C37.5722 14.1161 36.8482 13.8661 36.1242 13.8661C35.4002 13.8661 34.6762 14.1161 34.1242 14.6161C33.5722 15.1161 32.8482 15.3661 32.1242 15.3661M32.1252 15.3751C31.4012 15.3751 30.6772 15.1251 30.1252 14.6251C29.5732 14.1251 28.8492 13.8751 28.1252 13.8751C27.4012 13.8751 26.6772 14.1251 26.1252 14.6251C25.5732 15.1251 24.8492 15.3751 24.1252 15.3751C23.4012 15.3751 22.6772 15.1251 22.1252 14.6251C21.5732 14.1251 20.8492 13.8751 20.1252 13.8751C19.4012 13.8751 18.6772 14.1251 18.1252 14.6251C17.5732 15.1251 16.8492 15.3751 16.1252 15.3751C15.4012 15.3751 14.6772 15.1251 14.1252 14.6251C13.5732 14.1251 12.8492 13.8751 12.1252 13.8751C11.4012 13.8751 10.6772 14.1251 10.1252 14.6251C9.57323 15.1251 8.84923 15.3751 8.12523 15.3751" stroke="#292725" stroke-width="1.3"/>
</g>
</svg>
