<svg width="46" height="46" viewBox="0 0 46 46" fill="none" xmlns="http://www.w3.org/2000/svg">
<path d="M23.3629 8.0481V12.0781L27.3889 9.7531L28.3889 11.4861L23.3629 14.3871V21.3151L29.3629 17.8511V12.0481H31.3629V16.6961L34.8539 14.6821L35.8539 16.4141L32.3629 18.4291L36.3889 20.7531L35.3889 22.4861L30.3629 19.5831L24.3629 23.0471L30.3639 26.5121L35.3889 23.6101L36.3889 25.3421L32.3629 27.6661L35.8539 29.6821L34.8539 31.4141L31.3629 29.3991V34.0481H29.3629V28.2441L23.3629 24.7791V31.7081L28.3889 34.6101L27.3889 36.3421L23.3629 34.0171V38.0481H21.3629V34.0171L17.3369 36.3421L16.3369 34.6101L21.3629 31.7081V24.7791L15.3629 28.2431V34.0481H13.3629V29.3981L9.87291 31.4141L8.87291 29.6821L12.3619 27.6661L8.33691 25.3421L9.33691 23.6101L14.3619 26.5111L20.3619 23.0471L14.3629 19.5831L9.33691 22.4861L8.33691 20.7531L12.3629 18.4291L8.87291 16.4141L9.87291 14.6821L13.3629 16.6961V12.0481H15.3629V17.8511L21.3629 21.3151V14.3871L16.3369 11.4861L17.3369 9.7531L21.3629 12.0781V8.0481H23.3629Z" fill="#292725" stroke="#FCFBF9" stroke-width="0.7"/>
</svg>
