<svg width="46" height="46" viewBox="0 0 46 46" fill="none" xmlns="http://www.w3.org/2000/svg">
<g clip-path="url(#clip0_69_718)">
<path d="M19.3369 26.375L14.3369 37.375" stroke="#292725" stroke-width="1.3" stroke-linejoin="round"/>
<path d="M27.3369 26.375L32.3369 37.375" stroke="#292725" stroke-width="1.3" stroke-linejoin="round"/>
<path d="M23.3369 37.375V26.375" stroke="#292725" stroke-width="1.3" stroke-linejoin="round"/>
<path d="M12.3369 16.375C12.3369 22.45 17.2619 27.375 23.3369 27.375C29.4119 27.375 34.3369 22.45 34.3369 16.375" stroke="#292725" stroke-width="1.3" stroke-linejoin="round"/>
<path d="M30.3369 32.375H16.3369" stroke="#292725" stroke-width="1.3" stroke-linejoin="round"/>
<path d="M13.3369 19.375H9.33691" stroke="#292725" stroke-width="1.3" stroke-linejoin="round"/>
<path d="M37.3369 19.375H33.3369" stroke="#292725" stroke-width="1.3" stroke-linejoin="round"/>
<path d="M20.0419 15.375C16.4889 15.375 11.3369 15.375 11.3369 15.375" stroke="#292725" stroke-width="1.3" stroke-linejoin="round"/>
<path d="M35.3368 15.375C35.3368 15.375 32.6438 15.375 29.8638 15.375" stroke="#292725" stroke-width="1.3" stroke-linejoin="round"/>
<path d="M31.3309 -12.6249C31.3359 -7.79192 27.3369 -6.54192 27.3369 -1.62492C27.3369 3.29208 31.3359 4.54208 31.3309 9.37508C31.3259 14.2081 27.3369 15.5421 27.3369 20.3751M26.3309 -12.6249C26.3359 -7.79192 22.3369 -6.54192 22.3369 -1.62492C22.3369 3.29208 26.3359 4.54208 26.3309 9.37508C26.3259 14.2081 22.3369 15.5421 22.3369 20.3751M21.3309 -12.6249C21.3359 -7.79192 17.3369 -6.54192 17.3369 -1.62492C17.3369 3.29208 21.3359 4.54208 21.3309 9.37508C21.3259 14.2081 17.3369 15.5421 17.3369 20.3751M31.3309 -34.6909C31.3359 -29.8579 27.3369 -28.6079 27.3369 -23.6909C27.3369 -18.7739 31.3359 -17.5239 31.3309 -12.6909V-12.6249C31.3359 -7.79192 27.3369 -6.54192 27.3369 -1.62492C27.3369 3.29208 31.3359 4.54208 31.3309 9.37508C31.3259 14.2081 27.3369 15.5421 27.3369 20.3751M26.3309 -34.6909C26.3359 -29.8579 22.3369 -28.6079 22.3369 -23.6909C22.3369 -18.7739 26.3359 -17.5239 26.3309 -12.6909V-12.6249C26.3359 -7.79192 22.3369 -6.54192 22.3369 -1.62492C22.3369 3.29208 26.3359 4.54208 26.3309 9.37508C26.3259 14.2081 22.3369 15.5421 22.3369 20.3751M21.3309 -34.6909C21.3359 -29.8579 17.3369 -28.6079 17.3369 -23.6909C17.3369 -18.7739 21.3359 -17.5239 21.3309 -12.6909V-12.6249C21.3359 -7.79192 17.3369 -6.54192 17.3369 -1.62492C17.3369 3.29208 21.3359 4.54208 21.3309 9.37508C21.3259 14.2081 17.3369 15.5421 17.3369 20.3751" stroke="#292725" stroke-width="1.3" stroke-linejoin="round"/>
</g>
<defs>
<clipPath id="clip0_69_718">
<rect width="45" height="45" fill="white" transform="translate(0.336914 0.5)"/>
</clipPath>
</defs>
</svg>
