<svg width="76" height="66" viewBox="0 0 76 66" fill="none" xmlns="http://www.w3.org/2000/svg">
<path d="M38.8731 12.7119C39.0875 12.7174 39.2678 12.7674 39.4637 12.8693C39.6208 12.9511 39.7688 13.08 39.8245 13.2738C39.9725 13.7881 39.6112 14.4453 39.4174 14.901C39.2264 14.8759 38.9891 14.7583 38.8174 14.6569C38.6584 14.5628 38.5038 14.4209 38.4531 14.2171C38.3213 13.6882 38.6573 13.155 38.8731 12.7119Z" fill="black"/>
<path d="M33.2502 15.401C33.5608 15.3552 33.9288 15.3828 34.1848 15.6112C35.3311 16.6336 32.7368 19.8174 32.9407 21.0416C32.9658 21.1927 33.0088 21.2018 33.1146 21.2851C33.2489 21.2999 33.388 21.3132 33.5198 21.2728C34.5202 20.9656 35.1588 18.3762 35.3509 17.3303C35.4523 16.7785 35.4598 16.0137 35.696 15.5233C35.7599 15.4756 35.8456 15.3898 35.9201 15.3845C36.2569 15.3605 36.4713 15.5645 36.7108 15.8031C36.81 16.1181 36.8072 16.4185 36.7758 16.7465C36.6256 18.3197 35.7861 20.1178 34.6958 21.106C34.1939 21.5607 33.4445 21.9811 32.7858 21.8808C32.5524 21.8453 32.3672 21.7287 32.2263 21.5114C31.4083 20.2484 33.0559 16.9178 33.2502 15.401Z" fill="black"/>
<path d="M42.1102 11.3945C42.4076 11.3892 42.7293 11.3715 42.9889 11.5655C44.4292 12.6414 39.9875 19.3297 40.345 21.1125L40.4541 21.1738C41.2082 20.7911 42.3528 18.3991 42.705 17.5009C42.9685 16.8288 43.1592 16.1166 43.4095 15.437C43.5878 14.9527 43.822 14.5088 43.9869 14.0138C44.1657 13.4758 44.5306 11.7291 44.8553 11.4389C45.0841 11.3827 45.3343 11.4116 45.5452 11.533C47.1517 12.4584 42.5068 19.6087 42.9503 21.161L43.0503 21.183C44.0373 20.5425 44.677 18.8778 45.1971 17.7523C45.627 16.8222 46.2584 15.716 47.2007 15.4005C47.6734 15.2423 48.089 15.3681 48.5091 15.6237C48.5763 15.719 48.6375 15.8149 48.6637 15.9357C48.7124 16.1607 48.7089 16.4722 48.5986 16.6734C48.5319 16.7948 48.4989 16.7941 48.3795 16.8283L48.1987 16.7021C48.0799 16.4902 48.1345 16.2068 48.1541 15.9674L48.0615 15.8652C47.9217 15.8846 47.8468 15.8909 47.7288 15.9902C46.9993 16.6043 46.1253 18.804 46.0002 19.8199C45.9395 20.3138 45.9988 20.7726 46.2606 21.1803C46.3753 21.2425 46.4238 21.2931 46.5517 21.2564C47.2514 21.0556 48.5997 17.5503 48.8599 16.7799C48.9696 16.4552 49.0514 15.7981 49.2127 15.5413C49.283 15.4297 49.38 15.3809 49.5004 15.3703C49.7011 15.3527 50.0406 15.4861 50.1842 15.6451C50.4086 15.8937 50.3906 16.28 50.3848 16.6076C50.1679 17.7408 48.6405 20.3687 48.7987 21.1664C49.7129 21.3844 50.7972 17.821 51.3638 17.607L51.4264 17.7173C51.3682 18.5179 50.7732 19.417 50.3722 20.0721C49.9896 20.6973 49.3587 21.6686 48.6441 21.7958C48.4757 21.8258 48.3043 21.7849 48.1667 21.6676C47.8349 21.3848 47.8115 20.9129 47.7671 20.4833C47.3283 21.0799 46.8672 21.7147 46.1333 21.7905C45.7915 21.8257 45.452 21.7159 45.1943 21.4534C44.7318 20.9823 44.6872 20.3693 44.656 19.7138C44.3989 20.1888 44.1054 20.646 43.7617 21.0448C43.4728 21.3802 43.0327 21.8134 42.5986 21.8056C42.4399 21.8028 42.2968 21.7406 42.186 21.6093C41.8151 21.1699 41.8903 20.4562 41.9057 19.9021C41.6822 20.3029 41.4452 20.7106 41.1533 21.051C40.857 21.3963 40.4133 21.8139 39.9685 21.8084C39.8067 21.8063 39.657 21.736 39.5479 21.5982C39.2114 21.173 39.2602 20.5504 39.2737 20.0223C38.9201 20.5829 38.4526 21.251 37.927 21.6125C37.6892 21.7762 37.442 21.8616 37.1672 21.7725C36.9778 21.7111 36.8356 21.5773 36.7469 21.3769C36.2442 20.2428 37.2747 18.0862 37.6426 17.0111C37.7749 16.6245 37.8419 16.2153 37.9604 15.8248C38.0172 15.638 38.0828 15.4858 38.2451 15.3973C38.5047 15.3972 38.7812 15.413 38.9898 15.6132C40.0705 16.6506 37.5172 19.8446 37.6106 21.0999L37.7057 21.1753C37.7857 21.1435 37.8631 21.1049 37.9334 21.0503C39.4109 19.9026 41.7101 13.5016 42.1102 11.3945Z" fill="black"/>
<path fill-rule="evenodd" clip-rule="evenodd" d="M60.0654 11.9697C59.4549 11.4837 58.6568 11.3266 57.9253 11.415C57.869 11.4327 57.8122 11.4498 57.7552 11.467C57.3674 11.5836 56.9716 11.7027 56.6878 12.0418C56.623 12.2028 56.6725 12.3976 56.7218 12.5917C56.7551 12.7228 56.7883 12.8536 56.7862 12.9735C56.7778 13.4493 56.6137 14.0039 56.4765 14.4675C56.4648 14.5068 56.4534 14.5455 56.4423 14.5834C55.4468 17.9725 54.1878 21.2824 52.9337 24.5794C52.4364 25.8868 51.9399 27.1921 51.4609 28.4995C51.3315 28.8525 51.1628 29.3539 50.9734 29.9166C50.4689 31.4155 49.818 33.3493 49.3759 34.0707C48.9937 34.6945 48.2299 35.1445 47.6203 35.402C46.8624 35.7221 46.062 35.8244 45.2605 35.8877C45.5585 34.8735 45.9735 33.2759 45.5116 32.25C45.3383 31.865 45.045 31.5929 44.682 31.4665C44.1851 31.2935 43.6096 31.37 43.156 31.6552C42.6323 31.9847 42.2793 32.6017 42.1252 33.2485C41.9312 34.0651 42.0249 35.0731 42.3978 35.8091C42.6221 36.2521 42.9603 36.5671 43.3332 36.8393C43.2078 37.0992 43.074 37.3848 42.932 37.6881C41.8573 39.9821 40.3095 43.2862 38.3684 44.1031C37.8012 43.8792 37.3503 43.6509 37.0736 42.9952C36.2434 41.0283 37.1587 37.5204 37.7907 35.5541C38.6793 32.7889 39.9391 30.1548 41.6608 27.9467C42.0389 27.4621 42.5171 26.8551 43.0361 26.5707C43.2097 26.4756 43.4495 26.3862 43.6422 26.4503C43.8301 26.5129 44.0024 26.7084 44.0997 26.8956C44.1165 27.0657 44.0119 27.2973 43.8949 27.5562C43.6621 28.0714 43.3804 28.6948 43.9103 29.1566C44.1942 29.4041 44.7653 29.4792 45.118 29.4102C45.4091 29.3532 45.6254 29.0627 45.7812 28.7989C45.844 28.693 45.8991 28.5809 45.952 28.4684C45.9981 27.4334 45.8018 26.3628 45.1721 25.5729C44.649 24.9171 43.9539 24.6487 43.1904 24.6141C40.9528 24.5127 38.843 25.7063 37.2348 27.409C34.5256 30.2774 32.5679 35.0261 32.44 39.2518C32.4387 39.292 32.4379 39.3323 32.4375 39.3727C32.0844 39.4345 31.717 39.4958 31.3414 39.5584C29.8113 39.8135 28.1453 40.0913 26.7545 40.5187C28.5912 32.9339 29.3706 25.2369 29.3576 17.3759C29.3573 17.2192 29.3622 17.0138 29.3678 16.7803C29.3903 15.8378 29.4237 14.4377 29.1719 13.9372C29.0666 13.7282 28.8442 13.6215 28.6482 13.5674C26.2931 12.9162 16.8885 19.5778 14.4212 21.3484C10.9705 23.8246 7.15379 27.5297 6.1974 32.2775C5.91517 33.6786 5.95803 35.2596 6.64625 36.5068C6.71282 36.6267 6.78438 36.7426 6.86093 36.8545C6.93745 36.9664 7.0186 37.0738 7.10437 37.1766C7.19014 37.2795 7.28012 37.3773 7.3743 37.4701C7.46847 37.5629 7.56639 37.6502 7.66807 37.7321C7.76977 37.814 7.87473 37.89 7.98293 37.9601C8.09115 38.0303 8.20212 38.0943 8.31584 38.152C8.42955 38.2098 8.54548 38.2611 8.6636 38.306C8.78173 38.3508 8.9015 38.389 9.02291 38.4204C10.4758 38.7946 12.3058 38.3173 13.5478 37.413C14.5353 36.694 15.8139 35.4996 16.0732 34.1198C16.1507 33.7073 16.0964 33.2912 15.8943 32.9351C15.5783 32.3782 14.9805 32.0443 14.4228 31.9211C14.0973 31.8492 13.6866 31.822 13.4021 32.0479C13.1777 32.2261 13.0712 32.8176 12.9751 33.3511C12.92 33.6571 12.8683 33.9441 12.7998 34.1231C12.2913 35.452 10.9872 36.8749 9.61445 36.6434C9.00828 36.5412 8.45565 36.129 8.09756 35.5681C7.58594 34.7667 7.51054 33.7643 7.64696 32.8115C8.17236 29.1422 11.0679 26.0381 13.6113 23.9701C16.4135 21.6916 19.4869 20.0555 22.5899 18.4037C22.6867 18.3521 22.7836 18.3005 22.8805 18.2489C22.8527 20.0037 22.7765 21.7558 22.6517 23.5051C22.527 25.2544 22.354 26.9976 22.1327 28.7344C21.9115 30.4713 21.6424 32.1985 21.3255 33.9161C21.0087 35.6336 20.6446 37.3381 20.2334 39.0295C20.1766 39.2573 20.1209 39.4876 20.0649 39.7192C19.8244 40.7131 19.5785 41.7297 19.2214 42.6613C13.6222 44.5628 6.99691 47.1172 2.85079 51.9772C1.18007 54.0851 -0.115733 56.6762 0.00820325 59.6146C0.0738946 61.1722 0.620808 62.6589 1.64558 63.7112C2.84789 64.946 4.54234 65.4824 6.13751 65.3791C10.9778 65.0654 16.1484 61.3211 19.2937 57.2801C21.803 54.0562 23.6772 50.1615 25.0779 46.1773C25.3361 45.4431 25.5674 44.6982 25.7987 43.9533C25.9617 43.4283 26.1248 42.9032 26.2973 42.3818L32.426 41.0585C32.582 42.6205 33.1114 44.2224 34.2169 45.233C35.06 46.0036 36.2429 46.3974 37.3167 46.2611C39.2517 46.0159 40.8654 44.2174 42.0227 42.552C43.1582 40.9175 43.9966 39.0609 44.776 37.1842C46.1006 37.234 47.5768 36.905 48.7817 36.2642C47.999 38.7335 46.9781 42.0452 48.0318 44.5817C48.317 45.2685 48.7745 45.8384 49.4156 46.0931C50.1675 46.3918 50.9739 46.1955 51.6673 45.8004C53.4625 44.7777 54.8622 42.6219 56.0326 40.8191L56.0534 40.7872C56.1094 40.7009 56.1713 40.6091 56.2359 40.5132C56.5141 40.1006 56.8426 39.6133 56.9632 39.1796C56.9788 39.123 56.9855 39.0653 56.9922 39.0069L56.9927 39.0031C56.9942 38.9902 56.9959 38.9775 56.9977 38.9648C56.9985 38.959 56.9993 38.9531 57.0001 38.9472C57.0051 38.9058 57.0089 38.8646 57.0119 38.8227C57.0205 38.8372 57.029 38.8514 57.0373 38.8662C57.2024 39.1662 57.1937 39.8812 57.1864 40.4856C57.183 40.7599 57.18 41.0114 57.1936 41.191C57.3642 43.4376 58.5419 45.526 60.5213 46.1283C61.6984 46.4863 62.8673 46.2231 63.9107 45.5332C66.1062 44.0814 67.656 41.3845 68.7882 38.8668C68.8474 38.7351 68.9151 38.5993 68.9842 38.4608C69.1545 38.1193 69.333 37.7613 69.4124 37.4076C69.4273 37.3403 69.419 37.271 69.4053 37.2046C71.4219 37.2001 73.6615 36.634 75.1277 34.9493C75.5238 34.4941 75.9499 33.9362 75.9399 33.2591C75.9361 33.0037 75.871 32.693 75.698 32.5157C75.6103 32.4259 75.4973 32.3814 75.3785 32.3833C75.163 32.3868 74.9232 32.5952 74.7898 32.7721C74.6331 32.9798 74.5222 33.23 74.4114 33.4799C74.329 33.6659 74.2466 33.8518 74.1455 34.0198C73.4322 35.204 71.8849 35.6801 70.7053 35.8114C70.4416 35.8408 70.1776 35.8655 69.9132 35.8856C70.312 35.4404 70.4222 34.0781 70.4272 33.4629C70.4319 32.8548 70.3489 32.1949 69.9623 31.7405C69.8989 31.6662 69.825 31.609 69.7473 31.5563C69.1429 31.3532 68.4596 31.2784 67.8889 31.6426C67.3616 31.9792 67.0331 32.6208 66.8826 33.2709C66.6792 34.1489 66.7619 35.0826 67.1717 35.8683C67.385 36.2772 67.6912 36.5532 68.0319 36.8164C68.0064 37.0958 67.8175 37.4509 67.6591 37.7486C67.6084 37.8438 67.5609 37.9332 67.5229 38.0123L67.4639 38.135C66.5979 39.9378 65.5371 42.1463 64.1345 43.4533C63.7842 43.7796 63.343 44.0723 62.8742 44.0151C62.5555 43.9762 62.2984 43.774 62.1022 43.4926C61.3804 42.4559 61.4498 40.9294 61.5882 39.6968C62.0366 35.7052 64.5782 29.2987 67.4471 26.7903C67.6838 26.5835 68.0043 26.347 68.3155 26.3992C68.4696 26.4251 68.7771 26.6502 68.8612 26.8059C68.8694 26.8207 68.8756 26.8425 68.8807 26.8604C68.882 26.8649 68.8832 26.8691 68.8844 26.873C68.8144 27.0812 68.7185 27.2586 68.627 27.4279C68.4089 27.8314 68.216 28.1883 68.4596 28.8042C68.5666 29.0749 68.7639 29.2543 69.0078 29.3488C69.3311 29.474 69.7164 29.4503 70.0229 29.2769C70.3354 29.0998 70.5672 28.7698 70.6755 28.3946C70.863 27.7455 70.6744 27.0218 70.4063 26.4381C70.0469 25.656 69.5232 25.0372 68.7714 24.7695C67.3192 24.2524 65.3555 24.9008 64.0626 25.6841C62.5318 26.6115 61.2726 28.0375 60.2595 29.6246C59.562 30.717 59.0621 31.8985 58.5596 33.086C58.2625 33.7881 57.9646 34.4923 57.6244 35.1815C56.9712 36.5049 52.7786 44.2814 51.3529 43.979L51.3358 43.9663C51.186 43.8553 51.0859 43.7811 51.0456 43.562C50.714 41.7656 54.5984 32.7636 56.5066 28.3413C56.8748 27.488 57.1694 26.8053 57.346 26.3777C58.1603 24.4206 58.9203 22.4364 59.6258 20.4252C59.6713 20.2941 59.7182 20.1601 59.7659 20.0236C60.3751 18.2808 61.1282 16.1265 61.0857 14.299C61.0642 13.3778 60.7431 12.5091 60.0654 11.9697ZM18.557 44.7004L18.4901 44.6806C13.3966 46.5334 4.92381 49.7922 2.30643 55.55C1.65304 56.9874 1.2258 58.8226 1.67677 60.4135C1.81717 60.9091 2.04424 61.3983 2.33603 61.8003C2.83502 62.2846 3.35237 62.4246 3.99445 62.3646C7.25041 62.0613 10.8984 58.9938 12.946 56.223C15.135 53.2613 16.7061 49.9288 18.0343 46.3817C18.0665 46.2959 18.1143 46.1815 18.1685 46.0521C18.3409 45.6403 18.5772 45.0759 18.5736 44.7908C18.5733 44.7691 18.566 44.7383 18.5605 44.715C18.5592 44.7097 18.558 44.7047 18.557 44.7004Z" fill="black"/>
<path d="M44.648 1.86357C44.7227 1.95957 44.7547 2.0929 44.744 2.26357C44.744 2.42357 44.696 2.5729 44.6 2.71157C44.3333 3.12757 43.768 3.33557 42.904 3.33557C42.4667 3.33557 41.9653 3.28224 41.4 3.17557C41.336 3.1649 41.1973 3.1329 40.984 3.07957C40.4613 2.96224 40.024 2.87157 39.672 2.80757C39.6613 2.83957 39.6453 2.88757 39.624 2.95157C39.6027 3.0049 39.5867 3.04757 39.576 3.07957C38.5307 5.68224 37.8427 7.55957 37.512 8.71157C37.5013 8.81824 37.528 8.88224 37.592 8.90357C37.6133 8.91424 37.6453 8.91424 37.688 8.90357C37.7413 8.88224 37.864 8.77557 38.056 8.58357C38.248 8.3809 38.472 8.09824 38.728 7.73557C38.9627 7.39424 39.2027 7.0209 39.448 6.61557C39.672 6.23157 39.864 5.87957 40.024 5.55957C40.0667 5.47424 40.1307 5.4529 40.216 5.49557C40.312 5.53824 40.3387 5.60757 40.296 5.70357C40.104 6.0769 39.8587 6.5089 39.56 6.99957C39.336 7.38357 39.1227 7.7409 38.92 8.07157C38.4613 8.78624 38.0933 9.2929 37.816 9.59157C37.5493 9.89024 37.336 10.0609 37.176 10.1036C37.176 10.1036 37.1707 10.1089 37.16 10.1196C37.1173 10.1516 37.0693 10.1729 37.016 10.1836C37.016 10.1836 37.0107 10.1836 37 10.1836C36.8827 10.2262 36.7653 10.2476 36.648 10.2476C36.456 10.2476 36.2907 10.1889 36.152 10.0716C35.8427 9.82624 35.752 9.37824 35.88 8.72757C35.9333 8.4929 36.184 7.79424 36.632 6.63157C36.8453 6.06624 37.0107 5.61824 37.128 5.28757C37.256 4.94624 37.4107 4.5089 37.592 3.97557C37.784 3.44224 37.928 2.98357 38.024 2.59957C37 2.5249 36.344 2.64757 36.056 2.96757C36.0347 2.99957 36.0027 3.0209 35.96 3.03157C35.8747 3.03157 35.8053 2.99424 35.752 2.91957C35.6987 2.8449 35.688 2.72757 35.72 2.56757C35.7413 2.40757 35.8 2.25824 35.896 2.11957C36.2587 1.58624 36.9467 1.41024 37.96 1.59157C38.0453 1.60224 38.1413 1.61824 38.248 1.63957C38.2907 1.31957 38.296 1.07424 38.264 0.90357C38.2533 0.818237 38.2907 0.748904 38.376 0.695571C38.4613 0.620904 38.6533 0.594237 38.952 0.615571C39.2613 0.626237 39.5067 0.706237 39.688 0.855571C40.0187 1.1009 40.1147 1.47957 39.976 1.99157C42.472 2.43957 43.9067 2.37557 44.28 1.79957C44.3013 1.76757 44.3333 1.74624 44.376 1.73557C44.4827 1.71424 44.5733 1.7569 44.648 1.86357Z" fill="black"/>
<path d="M45.107 5.44757C45.1497 5.36224 45.2137 5.3409 45.299 5.38357C45.395 5.42624 45.4217 5.49557 45.379 5.59157C44.899 6.6049 44.3337 7.57024 43.683 8.48757C43.267 9.07424 42.883 9.5169 42.531 9.81557C42.1897 10.1142 41.8803 10.2636 41.603 10.2636C41.5497 10.2636 41.4963 10.2582 41.443 10.2476C41.2723 10.2049 41.155 10.1089 41.091 9.95957C41.0377 9.86357 41.0057 9.75157 40.995 9.62357C40.995 9.4849 41.0163 9.3249 41.059 9.14357C41.1017 8.96224 41.1443 8.7969 41.187 8.64757C41.2403 8.49824 41.315 8.3009 41.411 8.05557C41.5177 7.81024 41.603 7.6129 41.667 7.46357C41.731 7.31424 41.827 7.1009 41.955 6.82357C42.3817 5.89557 42.5897 5.36224 42.579 5.22357C42.3443 5.25557 42.0243 5.51157 41.619 5.99157C41.2243 6.47157 40.8403 7.07957 40.467 7.81557C40.1043 8.55157 39.8697 9.23957 39.763 9.87957C39.7523 9.9009 39.7417 9.92224 39.731 9.94357C39.7203 10.0182 39.6883 10.0769 39.635 10.1196C39.5923 10.1516 39.5443 10.1729 39.491 10.1836C39.491 10.1836 39.4857 10.1836 39.475 10.1836C39.3577 10.2262 39.2403 10.2476 39.123 10.2476C38.931 10.2476 38.7657 10.1889 38.627 10.0716C38.3177 9.82624 38.227 9.37824 38.355 8.72757C38.4083 8.50357 38.659 7.8049 39.107 6.63157C39.363 5.9489 39.5603 5.41024 39.699 5.01557C39.8483 4.61024 40.0297 4.0929 40.243 3.46357C40.4563 2.83424 40.6003 2.30624 40.675 1.87957C40.7603 1.4529 40.7817 1.12757 40.739 0.90357C40.7177 0.818237 40.755 0.748904 40.851 0.695571C40.9363 0.620904 41.1283 0.594237 41.427 0.615571C41.7363 0.626237 41.9817 0.706237 42.163 0.855571C42.515 1.12224 42.6057 1.5329 42.435 2.08757C42.4137 2.16224 42.2857 2.4929 42.051 3.07957C41.4537 4.55157 41.0003 5.7249 40.691 6.59957C41.267 5.67157 41.859 5.0369 42.467 4.69557C42.563 4.63157 42.6857 4.57824 42.835 4.53557C42.995 4.48224 43.1657 4.4449 43.347 4.42357C43.5283 4.40224 43.683 4.43424 43.811 4.51957C43.971 4.62624 44.0457 4.7969 44.035 5.03157C43.9923 5.45824 43.6777 6.24224 43.091 7.38357C42.8243 7.89557 42.6483 8.2529 42.563 8.45557C42.4457 8.7329 42.4083 8.89824 42.451 8.95157C42.6217 8.9089 43.0003 8.5089 43.587 7.75157C44.1843 6.98357 44.691 6.21557 45.107 5.44757Z" fill="black"/>
<path d="M49.5387 5.70357C49.5814 5.60757 49.6454 5.5809 49.7308 5.62357C49.8268 5.66624 49.8534 5.73557 49.8107 5.83157C49.5547 6.40757 49.2827 6.9409 48.9948 7.43157C48.7067 7.92224 48.3707 8.40224 47.9867 8.87157C47.6027 9.33024 47.1761 9.6929 46.7067 9.95957C46.2374 10.2262 45.7521 10.3596 45.2507 10.3596C45.1547 10.3596 45.0534 10.3542 44.9468 10.3436C44.6161 10.3009 44.3494 10.1356 44.1468 9.84757C43.9334 9.5489 43.8054 9.15424 43.7627 8.66357C43.6881 7.79957 43.8641 6.96224 44.2907 6.15157C44.7814 5.22357 45.4748 4.63157 46.3708 4.37557C47.1174 4.16224 47.6561 4.27957 47.9867 4.72757C48.1894 4.99424 48.2748 5.3409 48.2428 5.76757C48.2214 6.18357 48.0828 6.59424 47.8268 6.99957C47.6668 7.26624 47.4908 7.47957 47.2988 7.63957C47.1174 7.79957 46.9468 7.9009 46.7868 7.94357C46.6268 7.97557 46.4934 7.99157 46.3867 7.99157C46.2801 7.9809 46.1841 7.95957 46.0988 7.92757C45.7894 7.81024 45.5707 7.59157 45.4427 7.27157C45.2081 7.8689 45.1121 8.4129 45.1548 8.90357C45.1974 9.3409 45.3521 9.60757 45.6188 9.70357C45.7254 9.74624 45.9228 9.70357 46.2108 9.57557C46.5094 9.44757 46.8347 9.23424 47.1867 8.93557C48.1361 8.13557 48.9201 7.05824 49.5387 5.70357ZM46.8507 5.44757C46.3921 5.73557 45.9974 6.17824 45.6667 6.77557C45.6881 6.94624 45.7628 7.0689 45.8908 7.14357C46.0508 7.25024 46.2108 7.27157 46.3708 7.20757C46.6481 7.07957 46.8667 6.8929 47.0267 6.64757C47.1867 6.39157 47.2774 6.13024 47.2988 5.86357C47.3094 5.61824 47.2614 5.46357 47.1548 5.39957C47.0801 5.3569 46.9787 5.3729 46.8507 5.44757Z" fill="black"/>
</svg>
