<svg width="45" height="46" viewBox="0 0 45 46" fill="none" xmlns="http://www.w3.org/2000/svg">
<path fill-rule="evenodd" clip-rule="evenodd" d="M13.5937 14.1091V14.0938C13.5937 8.91608 17.7911 4.71875 22.9687 4.71875C28.1464 4.71875 32.3437 8.91608 32.3437 14.0938V16.9062H32.552C34.5328 16.9062 36.0619 18.6478 35.8057 20.6119L33.4824 38.4244C33.2692 40.0587 31.8768 41.2812 30.2287 41.2812H14.7802C13.1254 41.2812 11.7296 40.049 11.5243 38.407L10.9461 33.7812H10.3125C8.50032 33.7812 7.03125 32.3122 7.03125 30.5V21.125C7.03125 17.3993 9.92905 14.3503 13.5937 14.1091ZM16.4062 14.0938C16.4062 10.4694 19.3444 7.53125 22.9687 7.53125C26.5931 7.53125 29.5312 10.4694 29.5312 14.0938V16.9062H23.873C23.6456 15.3161 22.278 14.0938 20.625 14.0938H16.4062ZM13.7805 33.7812L14.3151 38.0581C14.3444 38.2927 14.5438 38.4688 14.7802 38.4688H30.2287C30.4641 38.4688 30.663 38.2941 30.6935 38.0606L32.2299 26.2812H23.9062V30.5C23.9062 32.3122 22.4372 33.7812 20.625 33.7812H13.7805ZM23.9062 23.4688H32.5968L33.0169 20.2481C33.0535 19.9675 32.835 19.7188 32.552 19.7188H23.9062V23.4688ZM21.0937 25.3438H9.84375V21.125C9.84375 18.795 11.7325 16.9062 14.0625 16.9062H20.625C20.8839 16.9062 21.0937 17.1161 21.0937 17.375V25.3438ZM9.84375 28.1562H21.0937V30.5C21.0937 30.7589 20.8839 30.9688 20.625 30.9688H10.3125C10.0536 30.9688 9.84375 30.7589 9.84375 30.5V28.1562Z" fill="#292725" stroke="white" stroke-width="1.5"/>
</svg>
